<svg width="3426" height="1675" viewBox="0 0 3426 1675" fill="none" xmlns="http://www.w3.org/2000/svg">
<rect width="3426" height="1675" fill="#4D00AE"/>
<path d="M1343.4 557V675H1215.8V557H1153.8V841H1215.8V731H1343.4V841H1405.4V557H1343.4ZM1564.27 847C1645.07 847 1692.67 808.6 1692.67 748.2V557H1630.67V743C1630.67 772.2 1607.07 791 1563.87 791C1520.67 791 1497.07 772.2 1497.07 743V557H1435.07V748.2C1435.07 808.6 1483.07 847 1564.27 847ZM2013.98 557H1933.58L1868.38 727.8L1802.78 557H1722.38V841H1780.78V653.4L1845.98 841H1890.38L1955.58 653.4V841H2013.98V557ZM2249.89 841H2311.09L2217.89 557H2123.09L2029.89 841H2091.09L2108.29 791H2232.69L2249.89 841ZM2213.09 735H2127.89L2170.69 613.4L2213.09 735ZM2502.89 557V732.6L2387.29 557H2326.89V841H2387.29V666.2L2502.89 841H2563.29V557H2502.89Z" fill="white"/>
<path d="M1281.4 869H1153.8V1153H1281.8C1360.6 1153 1408.2 1114.6 1408.2 1054.2V967.8C1408.2 907.4 1360.6 869 1281.4 869ZM1346.2 1049C1346.2 1078.2 1324.2 1097 1285.4 1097H1215.8V925H1285.8C1324.2 925 1346.2 943.8 1346.2 973V1049ZM1437.89 1153H1499.89V869H1437.89V1153ZM1790.92 971.4V961.8C1790.92 901.4 1743.32 863 1660.12 863C1576.92 863 1529.32 901.4 1529.32 961.8V1060.2C1529.32 1120.6 1577.32 1159 1660.52 1159C1743.32 1159 1790.92 1120.6 1790.92 1060.2V999H1658.92V1055H1728.92C1728.92 1084.2 1702.92 1103 1660.12 1103C1617.32 1103 1591.32 1084.2 1591.32 1055V967C1591.32 937.8 1617.72 919 1660.52 919C1702.92 919 1728.92 937.8 1728.92 967V971.4H1790.92ZM1824.53 1153H1886.53V869H1824.53V1153ZM2157.16 869H1917.16V925H2006.36V1153H2068.36V925H2157.16V869ZM2350.4 1153H2411.6L2318.4 869H2223.6L2130.4 1153H2191.6L2208.8 1103H2333.2L2350.4 1153ZM2313.6 1047H2228.4L2271.2 925.4L2313.6 1047ZM2501.41 1097V869H2439.41V1153H2655.01V1097H2501.41Z" fill="white"/>
<path d="M628.202 1230.86C544.833 1230.86 477 1163.04 477 1079.66V1009.5C477 981.555 487.882 955.285 507.637 935.53C527.392 915.775 553.662 904.893 581.6 904.893H595.617L595.609 889.95C595.591 865.864 604.953 843.218 621.966 826.179C638.988 809.14 661.616 799.743 685.703 799.734L718.305 799.717H718.357C742.007 799.717 764.234 808.922 780.967 825.629C797.709 842.353 806.94 864.597 806.949 888.265V889.575C806.958 913.766 797.595 936.482 780.591 953.538C763.57 970.612 740.915 980.018 716.802 980.018H670.777L670.821 1037.75C670.838 1063.06 678.873 1086.53 692.515 1105.76C693.117 1104.17 693.703 1102.62 694.262 1101.12C704.314 1074.38 716.82 1041.1 742.531 1013.81C765.771 989.145 796.032 973.669 832.782 967.591L832.538 518.989C832.529 498.247 849.332 481.427 870.074 481.418H870.092C890.825 481.418 907.637 498.221 907.645 518.954L907.925 1039.76H870.354C826.363 1039.76 807.534 1054.35 797.194 1065.33C781.823 1081.64 773.055 1104.98 764.574 1127.54C761.579 1135.51 758.636 1143.33 755.43 1150.85C766.033 1153.99 777.255 1155.67 788.853 1155.67C876.354 1155.67 947.54 1084.49 947.54 996.987V791.691C947.54 770.949 964.352 754.137 985.093 754.137C1005.84 754.137 1022.65 770.949 1022.65 791.691V996.987C1022.65 1059.44 998.325 1118.15 954.168 1162.3C910.012 1206.46 851.297 1230.78 788.853 1230.78C758.784 1230.78 729.754 1223.95 703.554 1211.03C681.214 1223.93 655.258 1230.84 628.202 1230.84V1230.86ZM581.6 980.01C573.723 980.01 566.317 983.075 560.745 988.647C555.173 994.219 552.107 1001.63 552.107 1009.51V1079.67C552.107 1121.62 586.238 1155.76 628.202 1155.76C630.735 1155.76 633.25 1155.65 635.73 1155.42C609.818 1121.86 595.766 1080.92 595.731 1037.82L595.687 980.018H581.618L581.6 980.01ZM670.725 904.919H716.794C722.2 904.919 725.754 902.168 727.387 900.527C729.047 898.858 731.841 895.225 731.833 889.61V888.3C731.833 883.426 729.352 880.23 727.877 878.754C726.401 877.278 723.204 874.807 718.348 874.807L685.746 874.824C680.323 874.824 676.76 877.593 675.109 879.234C673.467 880.885 670.707 884.457 670.707 889.872V904.893L670.725 904.919Z" fill="white"/>
<path d="M630.822 779.132C610.08 779.132 593.268 762.32 593.268 741.578V496.911C593.268 476.169 610.08 459.357 630.822 459.357C651.564 459.357 668.375 476.169 668.375 496.911V741.578C668.375 762.32 651.564 779.132 630.822 779.132Z" fill="white"/>
<path d="M746.872 779.132C726.13 779.132 709.318 762.32 709.318 741.578V468.554C709.318 447.812 726.13 431 746.872 431C767.614 431 784.426 447.812 784.426 468.554V741.587C784.426 762.329 767.614 779.141 746.872 779.141V779.132Z" fill="white"/>
<path d="M514.772 895.758C494.03 895.758 477.218 878.946 477.218 858.205V592.778C477.218 572.036 494.03 555.224 514.772 555.224C535.514 555.224 552.326 572.036 552.326 592.778V858.205C552.326 878.946 535.514 895.758 514.772 895.758Z" fill="white"/>
</svg>
