<?xml version="1.0" encoding="UTF-8"?>
<svg id="Layer_1" data-name="Layer 1" xmlns="http://www.w3.org/2000/svg" version="1.1" viewBox="0 0 159 39">
  <defs>
    <style>
      .cls-1 {
        fill: #c80032;
        stroke-width: 0px;
      }
    </style>
  </defs>
  <path class="cls-1" d="M7.3,2.3c2.4-1.2,5.2-1.8,7.9-1.7,1.7,0,3.5,0,5.2.4,3.3.7,6.3,2.8,7.8,5.7.9,1.7,1.1,3.6,1.3,5.5,0,5.1,0,10.3,0,15.4-1.7,0-3.3,0-5,0-.2-1.3-.5-2.5-.7-3.8-.6.6-1.2,1.3-1.9,1.9-4,2.8-9.6,3.1-14.1,1.3-1.9-.9-3.6-2.2-4.8-4-.4-.2-.4-.7-.6-1.1-.9-1.7-1.3-3.6-1.4-5.5,0-1.2,0-2.4,0-3.6.3-3,1.3-6.1,3.5-8.4.9-.9,1.9-1.6,2.9-2.2ZM10.2,5.6c-2.1,1.8-2.5,4.7-2.7,7.3,0,1.4-.1,2.7.1,4.1.1,2.2.8,4.5,2.4,6.2,2.1,1.8,5.3,2.1,7.9,1.1,1.9-.8,3.4-2.4,4.2-4.2.9-3,.8-6.2.5-9.3-.2-1.9-.9-3.9-2.4-5.2-1.1-.9-2.4-1.4-3.8-1.5-2.2-.2-4.6,0-6.2,1.6Z"/>
  <path class="cls-1" d="M57,4.8c2.4-2.7,6-4,9.6-4.1,1.2,0,2.3,0,3.5,0,2.9.2,5.8,1.1,8.1,3,.8.8,1.7,1.5,2.2,2.4,1.7,2.5,2.4,5.5,2.3,8.5.1,4.1-1.5,8.4-4.9,10.9-1.9,1.4-4.2,2.1-6.6,2.5.2,0,.5,0,.7,0,1.7.4,3.5.9,5.1,1.6,2.5,1,5,2.4,7.6,3.3,4,1.6,8.6,1.9,12.5,0,.5-.2.9-.7,1.5-.9-.4,1.3-1.2,2.4-2.1,3.4-1.8,1.5-4,2.7-6.4,2.6-1.4,0-2.8.1-4.1-.2-6.2-1.2-11.3-5.5-17.7-6.2-1,0-2-.3-3.1,0-2.6,0-5,1-7.2,2.3-.4.2-.8.5-1.2.6.5-1.2,1.3-2.3,2.2-3.3,1.4-1.4,3.2-2.3,5-2.9.3-.1.7,0,.9-.4-3-.4-6-1.7-8-3.9-1.9-2.1-2.9-4.8-3.2-7.6-.4-4,.4-8.5,3.2-11.6ZM67.5,3.9c-2,.1-4,.8-5.2,2.4-1.4,2-1.8,4.6-1.7,7,0,1.3,0,2.6,0,3.8.2,2.2.8,4.7,2.6,6.2,1.4,1.1,3.4,1.6,5.2,1.5,2.2,0,4.6-.9,5.9-2.8,1.1-1.8,1.5-3.9,1.5-6,.2-.9.1-1.9.1-2.8-.2-.9,0-1.9-.3-2.8-.3-2.1-1.2-4.5-3.2-5.6-1.5-.8-3.3-1.1-5-1Z"/>
  <path class="cls-1" d="M136.2,1.7c1.7-.7,3.4-1,5.2-1.1,1.2,0,2.5,0,3.7,0,2.8.1,5.7,1,7.9,2.7.8.7,1.6,1.4,2.2,2.3,1.2,1.7,1.7,3.8,1.9,5.9,0,5.4,0,10.8,0,16.2-1.6,0-3.1,0-4.7,0-.3,0-.3-.3-.4-.5,0-.6-.3-1.3-.4-1.9-.1-.4-.2-.9-.3-1.3-1.1,1.5-2.7,2.6-4.5,3.3-2.3.9-5,1.2-7.5.9-2.6-.2-5.1-1.3-7.1-3-2.1-2-3.3-4.8-3.7-7.6-.4-3.6,0-7.3,1.6-10.6.5-.9,1.1-1.7,1.8-2.5.6-.5,1.2-1,1.8-1.5.8-.4,1.6-.8,2.4-1.2ZM142.7,3.9c-2.3,0-4.6.9-5.9,2.8-.7,1.1-1.1,2.4-1.3,3.7-.2.9,0,1.8-.3,2.6,0,2.6,0,5.2,1,7.7.7,1.7,2.1,3.1,3.9,3.6,1.5.5,3.1.5,4.6.1,2.2-.6,4.2-2.2,5.1-4.3,1.1-2.5.8-5.3.8-7.9-.2-2-.4-4-1.6-5.7-.6-.7-1.3-1.4-2.1-1.8-1.3-.7-2.7-.9-4.1-.9Z"/>
  <path class="cls-1" d="M38.5,4.5c2.4-2.4,5.8-3.4,9.2-3.7.8,0,1.5-.2,2.2-.1,1.3.2,2.6,0,3.9.4-.6.9-1.1,1.8-1.6,2.8-1.8.1-3.6-.2-5.3.3-1.6.3-3,1.3-3.8,2.8-1.1,2-1.1,4.3-1.3,6.5,0,4.7,0,9.5,0,14.2-2.2,0-4.3,0-6.5,0,0-4.7,0-9.5,0-14.2.1-3.2.9-6.6,3.2-9Z"/>
  <path class="cls-1" d="M88.5,1c2.2,0,4.4,0,6.6,0,0,8.9,0,17.8,0,26.7-2.2,0-4.4,0-6.6,0,0-8.9,0-17.8,0-26.7Z"/>
  <path class="cls-1" d="M100,1c2.3,0,4.6,0,6.9,0,2.4,6,4.8,12,7.2,18,1.3-2.5,2.3-5,3.5-7.6,1.6-3.5,3.1-7,4.8-10.5,1.7,0,3.5,0,5.2,0-.4,1.5-1.4,2.8-1.9,4.2-2.4,4.8-4.7,9.6-7,14.3-1.3,2.7-2.7,5.4-3.9,8.2-1,0-2,0-3,0-3.9-8.9-7.7-17.8-11.6-26.7Z"/>
</svg>