<svg xmlns="http://www.w3.org/2000/svg" width="100%" height="100%" viewBox="0 0 173.67 40.268" alt="Cinnafilm"><path fill="#DC4405" d="M18.121 2.082c-.22 0-.439.005-.657.012v16.782L1.761 3.18a.65.65 0 1 0-.92.922l3.896 3.896A18.05 18.05 0 0 0 0 20.203c0 9.992 8.128 18.123 18.121 18.123 9.993 0 18.122-8.131 18.122-18.123S28.114 2.082 18.121 2.082zm-9.997 9.303l8.426 8.426H4.79a13.28 13.28 0 0 1 3.334-8.426zM5.658 8.921l1.543 1.543a14.572 14.572 0 0 0-3.715 9.347h-2.18a16.761 16.761 0 0 1 4.352-10.89zM17.47 37.009C8.8 36.677 1.789 29.751 1.327 21.115H3.51c.458 7.435 6.491 13.387 13.96 13.716v2.178zm0-3.483c-6.751-.327-12.2-5.695-12.655-12.411H17.47v12.411zm1.303-30.128c8.843.337 15.959 7.537 16.162 16.414h-2.178c-.203-7.676-6.341-13.895-13.984-14.232V3.398zm0 3.483c6.924.335 12.479 5.974 12.68 12.931h-12.68V6.881zm0 14.234h12.655c-.456 6.717-5.905 12.085-12.655 12.411V21.115zm0 15.894v-2.18c7.469-.329 13.501-6.281 13.96-13.717h2.183c-.464 8.639-7.472 15.565-16.143 15.897z"></path><path fill="currentcolor" d="M8.118 9.536a14.583 14.583 0 0 1 9.346-3.958v1.303a13.287 13.287 0 0 0-8.425 3.575l-.921-.92zM6.575 7.992a16.76 16.76 0 0 1 10.889-4.596v-1.3a17.98 17.98 0 0 0-5.643 1.118l-2.013.892a18.209 18.209 0 0 0-4.154 2.967l.921.919zm52.095 8.162h4.595V28.69H58.67V16.154zm71.696 0h4.596V28.69h-4.596V16.154zM56.563 26.509l-7.351.009c-.721 0-.961-.239-.961-1.015v-10.68c0-.774.24-1.016.961-1.016l7.351.005v-2.193h-9.915c-2.214 0-3.417 1.095-3.417 3.471v10.147c0 2.375 1.203 3.472 3.417 3.472h9.934l.003-.021h-.022v-2.179zM77.86 16.158h-5.713c-.774 0-1.123.293-1.442 1.28h-.053l-.107-1.28h-4.39v12.551h4.657v-9.667c0-.668.187-.908.801-.908h3.952c.615 0 .801.24.801.908v9.667h4.646v-9.187c-.001-2.322-1.015-3.364-3.152-3.364zm17.637 0h-5.713c-.774 0-1.122.293-1.442 1.28h-.054l-.107-1.28h-4.389v12.551h4.654v-9.667c0-.668.188-.908.802-.908H93.2c.615 0 .802.24.802.908v9.667h4.646v-9.187c-.001-2.322-1.014-3.364-3.151-3.364zm24.089-1.175v1.334h-2.51v2.188h2.51V28.71h4.646V18.504h3.602v-2.188h-3.602v-1.563c0-.667.187-.908.802-.908h3.588V11.62h-5.884c-2.137-.001-3.152 1.041-3.152 3.363zm18.299-3.361h4.597v17.087h-4.597V11.622zm28.413 4.536h-5.312c-.754 0-1.104.278-1.491 1.207-.312-1.003-.622-1.207-1.897-1.207h-6.408c-.375 0-.668.081-.91.267-.213.187-.4.508-.533 1.014h-.055l-.105-1.28h-4.376V28.71h4.644v-9.667c0-.668.187-.908.799-.908h3.555c.611 0 .801.24.801.908v9.667h4.646v-9.667c0-.668.188-.908.801-.908h3.551c.614 0 .801.24.801.908v9.667h4.646v-9.187c-.005-2.323-1.02-3.365-3.157-3.365zm-31.486-4.539h-4.187a.148.148 0 0 0-.149.148v1.824a.15.15 0 0 0 .149.151h4.187a.15.15 0 0 0 .149-.151v-1.824a.149.149 0 0 0-.149-.148zm-75.838 2.124h3.986a.25.25 0 0 0 .25-.25v-1.624a.25.25 0 0 0-.25-.25h-3.986a.25.25 0 0 0-.25.25v1.624c.001.137.114.25.25.25zm53.682 2.415h-9.907c-.542.077-.861.366-1.135 1.05-.025.063-.208.535-.314.812h4.817v.006h4.378c.426 0 .668.16.668.588v.802c0 .426-.242.586-.668.586h-6.543c-2.188 0-3.15.909-3.15 4.354s.963 4.353 3.15 4.353h5.77c.934 0 1.387-.294 1.788-1.31h.054l.213 1.31h4.031v-9.187c0-2.322-1.015-3.364-3.152-3.364zm-1.493 9.666c0 .667-.188.907-.803.907h-4.11c-.615 0-.801-.24-.801-.907v-2.938c0-.667.186-.907.801-.907h4.913v3.845zm58.283-12.89c0-.37.092-.716.277-1.039.184-.321.438-.578.762-.763.322-.188.668-.28 1.041-.28.371 0 .718.094 1.039.277.324.184.576.438.765.761.188.323.28.672.28 1.044 0 .364-.09.704-.271 1.025-.18.318-.429.574-.752.767a2.055 2.055 0 0 1-1.062.288c-.379 0-.733-.097-1.058-.288a2.067 2.067 0 0 1-1.021-1.792zm.291 0c0 .32.078.618.238.895.162.278.381.498.659.656.277.162.575.241.892.241.324 0 .619-.081.896-.241.276-.161.493-.378.656-.652.159-.273.239-.573.239-.898a1.783 1.783 0 0 0-.891-1.55 1.731 1.731 0 0 0-.899-.242c-.317 0-.615.081-.892.24-.276.162-.493.379-.655.653s-.243.574-.243.898zm2.636-.504a.685.685 0 0 1-.117.395.706.706 0 0 1-.333.252l.659 1.094h-.464l-.573-.979h-.374v.979h-.41v-2.467h.723c.308 0 .531.061.675.179.142.118.214.302.214.547zm-1.202.419h.297c.149 0 .268-.04.358-.115a.367.367 0 0 0 .136-.293c0-.138-.042-.236-.119-.297-.082-.061-.208-.09-.38-.09h-.292v.795z"></path></svg>