<?xml version="1.0" encoding="UTF-8"?>
<svg id="Layer_1" data-name="Layer 1" xmlns="http://www.w3.org/2000/svg" viewBox="0 0 321.71 49.19">
  <defs>
    <style>
      .cls-1 {
        fill: #00adee;
        stroke-width: 0px;
      }
    </style>
  </defs>
  <path class="cls-1" d="m41.48,35.69c-1.56-.89-3.58-.61-4.75.75-1.04,1.21-2.31,2.24-3.81,3.09-2.44,1.38-5.15,2.07-8.13,2.07-5.06,0-9.16-1.6-12.3-4.81-3.14-3.21-4.71-7.27-4.71-12.2s1.57-8.99,4.71-12.2c3.14-3.21,7.24-4.81,12.3-4.81,2.98,0,5.68.69,8.1,2.07,1.48.85,2.75,1.87,3.8,3.09,1.19,1.37,3.22,1.64,4.78.73,2.1-1.22,2.61-4.09.98-5.89-1.62-1.78-3.54-3.29-5.76-4.53-3.64-2.03-7.6-3.05-11.89-3.05-7.14,0-13.06,2.36-17.75,7.08C2.35,11.8,0,17.64,0,24.6s2.35,12.8,7.05,17.52c4.7,4.72,10.61,7.08,17.75,7.08,4.34,0,8.32-1.03,11.96-3.08,2.22-1.25,4.13-2.77,5.74-4.56,1.62-1.8,1.09-4.66-1.01-5.86Z"/>
  <path class="cls-1" d="m73.52,0c-6.87,0-12.68,2.38-17.45,7.15-4.77,4.77-7.15,10.58-7.15,17.45s2.38,12.68,7.15,17.45c4.77,4.77,10.58,7.15,17.45,7.15s12.68-2.38,17.45-7.15c4.77-4.77,7.15-10.58,7.15-17.45s-2.38-12.68-7.15-17.45c-4.77-4.77-10.58-7.15-17.45-7.15Zm11.96,36.76c-3.23,3.23-7.22,4.84-11.96,4.84s-8.73-1.61-11.96-4.84c-3.23-3.23-4.84-7.28-4.84-12.16h33.61c0,4.88-1.62,8.93-4.84,12.16Z"/>
  <path class="cls-1" d="m123.86.88h-16c-1.45,0-2.63,1.18-2.63,2.63v42.16c0,1.45,1.18,2.63,2.63,2.63h16c6.5,0,11.91-2.29,16.23-6.88,4.31-4.58,6.47-10.2,6.47-16.84s-2.16-12.31-6.47-16.87c-4.31-4.56-9.72-6.84-16.23-6.84Zm10.94,35.37c-2.82,3.07-6.47,4.61-10.94,4.61h-10.84V8.33h10.84c4.47,0,8.12,1.52,10.94,4.57,2.82,3.05,4.23,6.95,4.23,11.69s-1.41,8.58-4.23,11.65Z"/>
  <path class="cls-1" d="m178.78,40.86h-17.31v-12.81h15.28c2.04,0,3.69-1.65,3.69-3.69s-1.65-3.69-3.69-3.69h-15.28v-12.33h16.97c2.04,0,3.69-1.65,3.69-3.69v-.07c0-2.04-1.65-3.69-3.69-3.69h-22.13c-1.45,0-2.63,1.18-2.63,2.63v42.16c0,1.45,1.18,2.63,2.63,2.63h22.47c2.04,0,3.69-1.65,3.69-3.69v-.07c0-2.04-1.65-3.69-3.69-3.69Z"/>
  <path class="cls-1" d="m229.65.88c-1.87,0-3.6.98-4.56,2.57l-12.79,21.14-12.74-21.11c-.97-1.61-2.72-2.6-4.6-2.6-2.97,0-5.37,2.4-5.37,5.37v38.16c0,2.15,1.74,3.9,3.9,3.9s3.9-1.74,3.9-3.9V14.43l12.68,20.34c1.03,1.65,3.44,1.65,4.47,0l12.67-20.27v29.92c0,2.15,1.74,3.9,3.9,3.9s3.9-1.74,3.9-3.9V6.22c0-2.95-2.39-5.33-5.33-5.33Z"/>
  <path class="cls-1" d="m248.37.88c-2.15,0-3.9,1.74-3.9,3.9v39.64c0,2.15,1.74,3.9,3.9,3.9s3.9-1.74,3.9-3.9V4.78c0-2.15-1.74-3.9-3.9-3.9Z"/>
  <path class="cls-1" d="m285.13,40.86h-15.58V4.61c0-2.06-1.67-3.73-3.73-3.73h-.34c-2.06,0-3.73,1.67-3.73,3.73v41.07c0,1.45,1.18,2.63,2.63,2.63h20.74c2.06,0,3.73-1.67,3.73-3.73s-1.67-3.73-3.73-3.73Z"/>
  <path class="cls-1" d="m317.99,40.86h-15.58V4.61c0-2.06-1.67-3.73-3.73-3.73h-.34c-2.06,0-3.73,1.67-3.73,3.73v41.07c0,1.45,1.18,2.63,2.63,2.63h20.74c2.06,0,3.73-1.67,3.73-3.73s-1.67-3.73-3.73-3.73Z"/>
</svg>