<svg width="1200" height="644" viewBox="0 0 1200 644" fill="none" xmlns="http://www.w3.org/2000/svg">
<path fill-rule="evenodd" clip-rule="evenodd" d="M464.879 122.319C442.442 132.775 440.621 164.394 461.654 178.324C468.44 182.818 481.698 184.342 490.043 181.584C501.587 177.771 511.578 163.569 511.578 150.974C511.578 138.822 502.667 125.684 491.148 120.853C484.127 117.909 473.013 118.528 464.879 122.319ZM223.186 183.642C189.029 190.002 161.752 210.378 146.799 240.702C136.976 260.624 135.63 267.34 135.648 296.348C135.664 321.026 135.73 321.581 140.23 334.605C156.623 382.061 194.917 408.67 246.816 408.67C286.74 408.67 318.847 392.746 338.418 363.237C343.559 355.484 351.759 337.342 351.759 333.717C351.759 332.177 346.206 331.822 322.098 331.822H292.436L290.931 335.129C288.657 340.125 280.92 348.449 275.186 352.072C260.624 361.273 236.775 362.249 220.651 354.304C203.518 345.863 193.022 329.523 190.248 306.976C186.271 274.646 198.525 246.928 221.593 236.075C235.682 229.447 254.57 229.277 268.966 235.651C276.525 238.997 288.276 249.693 290.622 255.362L292.328 259.483H322.042C356.501 259.483 354.415 260.781 347.058 243.915C329.729 204.19 292.852 181.48 246.121 181.753C238.858 181.796 228.538 182.646 223.186 183.642ZM925.922 183.02C884.405 191.653 852.741 220.477 839.632 261.57C834.834 276.608 834.118 305.199 838.109 322.478C843.021 343.755 853.274 362.217 868.513 377.228C878.577 387.141 885.803 392.063 899.863 398.579C914.619 405.418 926.071 408.24 943.192 409.255C995.688 412.364 1041.45 382.196 1057.93 333.606C1062.18 321.095 1062.6 318.302 1063.13 298.962C1063.63 280.891 1063.3 276.285 1060.78 266.27C1054.91 242.931 1041.87 221.569 1024.75 207.24C1014.59 198.732 995.173 188.571 982.112 184.92C972.436 182.216 935.755 180.975 925.922 183.02ZM385.491 260.526C386.172 344.946 385.962 342.846 395.839 364.148L400.829 374.911L387.523 405.18C380.203 421.826 374.397 435.631 374.621 435.853C374.845 436.077 390.902 426.35 410.304 414.239C452.397 387.963 451.525 388.445 442.869 396.272L435.987 402.496L443.564 404.756C456.579 408.636 470.004 410.113 484.501 409.26C527.558 406.73 557.073 385.054 569.062 347.161C571.792 338.53 571.957 334.294 572.424 261.222L572.916 184.361H548.391H523.868L527.467 188.642L531.065 192.921V232.531C531.065 278.546 530.907 279.287 520.424 282.093C516.914 283.032 513.871 284.433 513.664 285.205C513.457 285.979 511.914 300.382 510.235 317.215C508.557 334.048 506.531 349.563 505.732 351.693C501.406 363.227 485.827 364.246 479.86 353.385C478.598 351.09 478.323 351.01 478.288 352.936C478.225 356.405 471.534 361.038 466.591 361.031C464.21 361.028 460.291 359.823 457.882 358.353C452.404 355.01 451.721 352.001 447.558 312.836L444.432 283.415L439.367 282.605C436.501 282.146 432.828 280.223 430.907 278.177L427.512 274.561V233.051V191.541L430.882 187.952L434.252 184.361H409.564H384.875L385.491 260.526ZM595.004 184.815C595.004 185.328 611.817 232.888 617.958 249.745C619.771 254.718 633.017 292.112 647.395 332.842L673.538 406.897L707.773 406.92L742.009 406.944L748.529 388.511C752.116 378.374 756.525 366.01 758.327 361.036C770.245 328.166 820.18 186.466 820.18 185.521C820.18 184.883 807.484 184.361 791.966 184.361H763.752L736.191 267.83C721.032 313.737 708.23 351.298 707.741 351.298C707.253 351.298 705.097 345.761 702.948 338.995C700.801 332.227 688.583 294.823 675.798 255.874L652.552 185.057L623.778 184.681C607.953 184.474 595.004 184.535 595.004 184.815ZM974.714 234.815C997.767 245.211 1010.59 269.667 1008.8 299.813C1007.37 323.811 997.959 341.957 981.903 351.677C964.244 362.369 939.798 363.348 921.665 354.089C899.211 342.624 887.279 315.423 891.15 284.522C894.443 258.243 907.854 239.989 928.93 233.098C941.597 228.957 963.553 229.781 974.714 234.815ZM153.034 466.92C146.668 469.462 140.196 475.447 137.582 481.209C134.459 488.092 134.106 501.144 136.87 507.499C145.057 526.317 169.945 530.85 184.591 516.19C192.236 508.539 192.365 505.715 185.069 505.715C180.863 505.715 178.662 506.669 175.446 509.888C172.014 513.323 170.138 514.062 164.845 514.062C156.191 514.062 151.227 511.203 148.196 504.474C145.231 497.894 145.785 488.266 149.452 482.665C154.755 474.565 168.104 473.144 175.178 479.926C177.923 482.559 180.342 483.457 184.691 483.457C191.484 483.457 191.915 482.068 187.084 475.732C180.396 466.954 163.738 462.644 153.034 466.92ZM218.321 487.072C218.321 511.705 219.325 515.374 227.608 521.018C234.663 525.825 247.274 525.92 254.841 521.224C263.846 515.634 264.885 512.159 264.885 487.63V466.067H259.325H253.766L253.071 488.093C252.281 513.122 251.847 514.062 241.09 514.062C236.385 514.062 234.624 513.326 232.322 510.396C229.701 507.062 229.441 504.866 229.441 486.051V465.372H223.881H218.321V487.072ZM303.062 466.513C295.629 469.81 291.99 475.156 291.99 482.776C291.99 489.742 297.34 494.754 308.872 498.595C313.935 500.281 319.222 502.929 320.625 504.478C322.945 507.045 322.986 507.629 321.086 511.026C317.861 516.798 306.999 516.968 305.193 511.277C303.966 507.404 291.99 507.126 291.99 510.969C291.99 515.051 296.178 519.768 302.252 522.528C318.202 529.778 335.251 520.211 333.233 505.143C332.271 497.969 327.844 493.999 317.428 490.968C307.641 488.12 302.648 483.567 304.319 479.015C305.991 474.457 316.054 473.617 318.673 477.816C321.1 481.704 332.299 482.022 332.299 478.202C332.299 474.309 328.189 469.429 323.127 467.311C318.337 465.308 306.813 464.849 303.062 466.513ZM357.319 470.241V475.11H364.963H372.608V499.455V523.8H378.863H385.118V499.455V475.11H392.763H400.408V470.241V465.372H378.863H357.319V470.241ZM440.022 468.01C426.139 474.442 419.395 490.012 424.229 504.464C430.897 524.393 455.677 531.332 472.023 517.847C484.478 507.572 485.959 487.351 475.145 475.263C466.569 465.677 451.688 462.604 440.022 468.01ZM508.363 466.3C507.853 466.809 507.436 479.955 507.436 495.514V523.8H513.649H519.862L520.251 506.063L520.64 488.326L527.81 505.715C534.882 522.868 535.043 523.11 539.716 523.52L544.453 523.938L552.007 505.435L559.56 486.935L559.948 505.367L560.335 523.8H565.855H571.375V494.509V465.219L565.014 465.643L558.653 466.067L549.861 486.683C545.023 498.021 540.701 507.664 540.254 508.112C539.426 508.941 537.494 504.833 526.866 479.631L520.853 465.372H515.071C511.891 465.372 508.872 465.789 508.363 466.3ZM600.564 494.586V523.8H617.244H633.923V519.626V515.453H622.804H611.684V507.106V498.759H621.414H631.143V494.586V490.412H621.414H611.684V482.761V475.11H622.804H633.923V470.241V465.372H617.244H600.564V494.586ZM661.129 467.695C660.64 468.974 660.308 482.12 660.394 496.909L660.548 523.8H666.696H672.843V512.671C672.843 502.655 673.107 501.542 675.49 501.542C677.331 501.542 680.127 504.937 684.657 512.671L691.176 523.8H697.299C700.667 523.8 703.422 523.538 703.422 523.22C703.422 522.9 700.539 517.758 697.016 511.793C692.351 503.897 691.122 500.778 692.498 500.326C693.537 499.984 696.496 497.599 699.074 495.027C703.518 490.593 703.728 489.944 703.111 482.495C702.587 476.177 701.736 474.017 698.768 471.461C693.674 467.076 686.62 465.389 673.339 465.38C664.043 465.373 661.86 465.787 661.129 467.695ZM747.891 467.111C747.887 468.068 752.409 481.213 757.942 496.325L768 523.8H775.177C780.721 523.8 782.57 523.246 783.308 521.365C785.923 514.699 803.5 466.464 803.5 465.958C803.5 464.782 792.521 465.41 791.769 466.628C791.342 467.318 787.792 477.179 783.879 488.539C779.966 499.899 776.305 509.695 775.744 510.309C775.182 510.922 771.118 501.062 766.712 488.398L758.701 465.372H753.301C749.912 465.372 747.898 466.02 747.891 467.111ZM842.419 467.587C834.551 470.992 828.646 477.724 826.229 486.047C817.752 515.233 851.217 537.069 874.221 517.36C889.569 504.213 886.74 478.005 868.958 468.609C861.709 464.779 849.952 464.326 842.419 467.587ZM910.131 466.233C909.584 466.78 909.138 479.955 909.138 495.514V523.8H915.421H921.705L921.328 494.934L920.953 466.067L916.038 465.653C913.336 465.426 910.677 465.686 910.131 466.233ZM961.936 468.68C944.847 477.749 941.565 502.735 955.677 516.32C965.44 525.715 978.631 527.407 991.381 520.898C995.989 518.546 1003.66 509.729 1003.66 506.783C1003.66 506.196 1001.08 505.715 997.932 505.715C993.554 505.715 991.092 506.696 987.459 509.888C983.55 513.323 981.492 514.062 975.83 514.062C970.286 514.062 968.123 513.319 964.684 510.236C953.42 500.137 958.317 478.354 972.447 475.701C978.153 474.63 986.557 477.258 988.771 480.805C990.023 482.813 992.04 483.457 997.076 483.457H1003.73L1001.74 479.631C994.911 466.495 975.907 461.265 961.936 468.68ZM1030.07 494.543V523.8H1047.53H1065L1064.56 519.974C1064.13 516.224 1063.9 516.135 1053 515.453L1041.88 514.757V507.106V499.455L1051.96 499.046L1062.04 498.637V494.586V490.535L1051.96 490.126L1041.88 489.717V482.761V475.805L1053 475.11L1064.12 474.414V470.241V466.067L1047.09 465.677L1030.07 465.286V494.543ZM460.824 477.087C471.63 481.605 474.307 501.177 465.279 509.664C453.148 521.072 434.552 512.469 434.568 495.455C434.58 479.793 446.82 471.231 460.824 477.087ZM689.522 477.892C691.051 479.422 692.302 482.24 692.302 484.152C692.302 489.901 687.745 493.195 679.792 493.195H672.843V484.152V475.11H679.792C684.889 475.11 687.483 475.851 689.522 477.892ZM862.335 477.007C873.373 481.623 876.356 498.464 867.914 508.504C860.531 517.288 846.336 516.578 839.916 507.106C835.346 500.363 835.964 486.787 841.092 481.263C846.942 474.962 854.044 473.539 862.335 477.007Z" fill="#2858D3"/>
</svg>
