<svg version="1.1" id="Layer_1" xmlns="http://www.w3.org/2000/svg" xmlns:xlink="http://www.w3.org/1999/xlink" x="0px" y="0px" viewBox="0 0 489.51 259.23" style="enable-background:new 0 0 489.51 259.23;" xml:space="preserve" class="top_logo">
    <style type="text/css">
        .st0{fill:#1D1D1B;}
    </style>
    <g>
        <path d="M204.74,46.64c0,8.71-7.19,15.68-15.68,15.68c-8.5,0-15.47-6.97-15.47-15.68c0-8.28,6.97-15.47,15.47-15.47
            C197.55,31.17,204.74,38.36,204.74,46.64z"></path>
        <path d="M157.5,106.74c0,44-32.89,76.9-76.24,76.9h-50.1V31.15h50.1C124.6,31.15,157.5,63.17,157.5,106.74z M131.36,106.74
            c0-29.84-20.48-51.19-48.36-51.19H56.64v103.69H83C110.66,159.24,131.36,136.8,131.36,106.74z"></path>
        <rect x="176.86" y="77.11" width="24.18" height="106.52"></rect>
        <path d="M326.99,76.9v102.82c0,29.41-22.44,48.36-52.72,48.36c-18.52,0-38.56-6.75-48.36-17.65l12.2-16.77
            c8.5,8.28,21.57,12.63,35.29,12.63c16.34,0,29.41-11.11,29.41-27.01V167.3c-5.66,9.15-19.82,16.12-33.98,16.12
            c-28.75,0-51.19-23.96-51.19-54.46c0-30.28,22.44-54.02,51.19-54.02c14.16,0,28.32,6.75,33.98,16.12V76.9H326.99z M302.81,145.3
            v-32.24c-5.23-9.15-16.77-15.68-28.97-15.68c-18.3,0-32.24,13.51-32.24,31.59c0,18.3,13.94,31.8,32.24,31.8
            C285.82,160.76,297.58,154.23,302.81,145.3z"></path>
        <rect x="350.12" y="77.11" width="24.18" height="106.52"></rect>
        <path d="M459.14,182.55c-3.49,1.74-8.5,2.61-13.07,2.61c-23.53,0-40.08-15.03-40.08-41.39v-43.57h-20.48V77.11h20.48V48.58h24.18
            v28.54h27.88v23.09h-27.88v42.48c0,12.42,8.71,19.82,19.39,19.82c2.61,0,6.1-0.65,8.28-1.31L459.14,182.55z"></path>
        <rect x="349.33" y="33.86" class="st0" width="25.77" height="25.77"></rect>
    </g>
    </svg>