<?xml version="1.0" encoding="UTF-8"?>
<svg id="Logo" xmlns="http://www.w3.org/2000/svg" viewBox="0 0 706.81 316">
  <defs>
    <style>
      .cls-1 {
        fill: #000;
        stroke-width: 0px;
      }
    </style>
  </defs>
  <path class="cls-1" d="M161.16,0v72.68H34.76C15.8,72.68,0,88.48,0,107.44v101.12c0,18.96,15.8,34.76,34.76,34.76h173.8V0h-47.4ZM161.16,195.92H56.88c-6.32,0-9.48-3.24-9.48-9.48v-56.88c0-6.24,3.16-9.48,9.48-9.48h104.28v75.84Z"/>
  <path class="cls-1" d="M276.9,316v-72.68h126.4c18.96,0,34.76-15.8,34.76-34.76v-101.12c0-18.96-15.8-34.76-34.76-34.76h-173.8v243.32h47.4ZM276.9,120.08h104.28c6.32,0,9.48,3.24,9.48,9.48v56.88c0,6.24-3.16,9.48-9.48,9.48h-104.28v-75.84Z"/>
  <path class="cls-1" d="M504.4,316v-72.68h126.4c18.96,0,34.76-15.8,34.76-34.76v-101.12c0-18.96-15.8-34.76-34.76-34.76h-173.8v243.32h47.4ZM504.4,120.08h104.28c6.32,0,9.48,3.24,9.48,9.48v56.88c0,6.24-3.16,9.48-9.48,9.48h-104.28v-75.84Z"/>
  <path class="cls-1" d="M677.81,67.61c0-8.69,4.77-15,14.46-15s14.54,6.31,14.54,15-4.81,15-14.54,15-14.46-6.31-14.46-15ZM693.17,69.65h-5.35v7.48h-2.5v-18.88h8.36c5,0,6.49,2,6.49,5.64,0,3.09-1.09,5.05-4.49,5.6l4.46,7.64h-2.7l-4.26-7.48ZM705.13,67.61c0-7.75-3.95-13.32-12.86-13.32s-12.74,5.56-12.74,13.32,3.83,13.32,12.74,13.32,12.86-5.56,12.86-13.32ZM693.64,67.42c2.74,0,4.03-.78,4.03-3.45s-1.21-3.41-4.06-3.41h-5.78v6.85h5.82Z"/>
</svg>