<svg xmlns="http://www.w3.org/2000/svg" width="150" height="66.44" viewBox="0 0 150 66.44"><path d="M62.54,59.32a3.23,3.23,0,0,1-3.22,3.22H7.12a3.22,3.22,0,0,1-3.21-3.22V7.12A3.21,3.21,0,0,1,7.12,3.91h52.2a3.22,3.22,0,0,1,3.22,3.21v8.15h3.9V7.12A7.12,7.12,0,0,0,59.32,0H7.12A7.12,7.12,0,0,0,0,7.12v52.2a7.12,7.12,0,0,0,7.12,7.12h52.2a7.12,7.12,0,0,0,7.12-7.12V51.17h-3.9Z" fill="#ea961c"/><polygon points="30.07 25.24 30.07 19.14 10.55 19.14 10.55 47.3 30.23 47.3 30.23 41.24 17.48 41.24 17.48 36 28.9 36 28.9 30.29 17.48 30.29 17.48 25.24 30.07 25.24" fill="#fff"/><polygon points="55.89 19.14 33.78 19.14 33.78 25.24 45.41 25.24 33.2 42.96 33.2 47.3 55.85 47.3 55.85 41.24 42.55 41.24 55.89 21.84 55.89 19.14" fill="#fff"/><path d="M70.83,19.14H62.62V47.3h7.66c9.5,0,14.43-4.11,14.43-14C84.71,23.75,79.87,19.14,70.83,19.14ZM71,44.08H66.25V22.43H71c7,0,9.9,3.83,9.9,10.83S78,44.08,71,44.08Z" fill="#fff"/><path d="M108.81,27.55c0-5.08-3.09-8.41-9.78-8.41H89.88V47.3H93.5V36.35h4.26a16.41,16.41,0,0,0,2.89-.23L106.4,47.3h4l-6.23-12.09A7.83,7.83,0,0,0,108.81,27.55ZM98.64,33.3H93.5v-11h5.39c4.31,0,6.23,1.8,6.23,5.34,0,3.69-2.09,5.65-6.48,5.65Z" fill="#fff"/><polygon points="141.43 19.14 137.44 19.14 129.46 41.87 121.64 19.14 117.54 19.14 114.72 47.3 118.2 47.3 120.39 25.56 128.01 47.3 130.95 47.3 138.58 25.56 140.85 47.3 144.25 47.3 141.43 19.14" fill="#fff"/><path d="M144.25,22a2.9,2.9,0,0,1,1.44-2.49,2.94,2.94,0,0,1,2.89,0A2.88,2.88,0,1,1,144.25,22Zm.41,0a2.43,2.43,0,0,0,.32,1.23,2.52,2.52,0,0,0,3.4.91,2.64,2.64,0,0,0,.91-.91,2.48,2.48,0,0,0,0-2.47,2.53,2.53,0,0,0-.91-.9,2.49,2.49,0,0,0-2.48,0,2.46,2.46,0,0,0-.91.9,2.35,2.35,0,0,0-.35,1.24Zm3.6-.67a1,1,0,0,1-.16.54,1.05,1.05,0,0,1-.46.35l.91,1.5h-.67l-.79-1.33h-.52v1.33H146v-3.4h1a1.44,1.44,0,0,1,.94.25A.92.92,0,0,1,148.26,21.37Zm-1.67.57H147a.68.68,0,0,0,.49-.16.5.5,0,0,0,.19-.4.45.45,0,0,0-.17-.4.8.8,0,0,0-.52-.13h-.41Z" fill="#fff"/></svg>