<?xml version="1.0" encoding="UTF-8"?>
<svg id="Layer_1" data-name="Layer 1" xmlns="http://www.w3.org/2000/svg" viewBox="0 0 140.35 140.35">
  <defs>
    <style>
      .cls-1 {
        fill: #eb10eb;
      }

      .cls-1, .cls-2, .cls-3, .cls-4 {
        stroke-width: 0px;
      }

      .cls-5 {
        fill: none;
        stroke: #fff;
        stroke-miterlimit: 10;
        stroke-width: 4.5px;
      }

      .cls-2 {
        fill: #10ebeb;
      }

      .cls-3 {
        fill: #1010eb;
      }

      .cls-4 {
        fill: #ebeb10;
      }
    </style>
  </defs>
  <path class="cls-4" d="M70.18,130.83c33.5,0,60.65-27.16,60.65-60.65S103.67,9.52,70.18,9.52,9.52,36.68,9.52,70.18s27.16,60.65,60.65,60.65h0Z"/>
  <path class="cls-2" d="M70.18,109.71c22.52,0,40.78-17.7,40.78-39.54s-18.26-39.54-40.78-39.54-40.78,17.7-40.78,39.54,18.26,39.54,40.78,39.54h0Z"/>
  <path class="cls-5" d="M70.18,109.71c22.52,0,40.78-17.7,40.78-39.54s-18.26-39.54-40.78-39.54-40.78,17.7-40.78,39.54,18.26,39.54,40.78,39.54h0Z"/>
  <path class="cls-3" d="M140.35,70.18V0h-13.57v28.76C114,11.34,93.39,0,70.18,0H0v13.57h28.76C11.34,26.35,0,46.96,0,70.18v70.17h13.57v-28.76c12.78,17.43,33.39,28.77,56.61,28.77h70.17v-13.57h-28.76c17.43-12.78,28.77-33.39,28.77-56.61h0ZM13.57,70.18c0-31.21,25.39-56.61,56.61-56.61s56.61,25.39,56.61,56.61-25.4,56.61-56.61,56.61S13.57,101.39,13.57,70.18h0Z"/>
  <path class="cls-1" d="M70.18,90.52c11.59,0,20.99-9.11,20.99-20.35s-9.4-20.35-20.99-20.35-20.99,9.11-20.99,20.35,9.4,20.35,20.99,20.35h0Z"/>
  <path class="cls-5" d="M70.18,90.52c11.59,0,20.99-9.11,20.99-20.35s-9.4-20.35-20.99-20.35-20.99,9.11-20.99,20.35,9.4,20.35,20.99,20.35h0Z"/>
</svg>