<svg xmlns="http://www.w3.org/2000/svg" viewBox="0 0 70.87 70.87"><g id="circle_white_fill" data-name="circle white fill"><circle cx="35.43" cy="35.43" r="34.02" style="fill:#fff"/></g><g id="circle"><circle cx="35.43" cy="35.43" r="34.02" style="fill:none;stroke:#c2a649;stroke-miterlimit:10;stroke-width:2px"/></g><g id="mrMxf"><path d="M35.47,20l.43-3.92h-.16l-1.29,3-4.38,7H28.83l-4.64-7.07-1.27-2.92h-.17L23.32,20v9.51H19.54V10.62h3.62l5.45,8.72,1,2.08h.14l.89-2.14,5.21-8.66h3.59v18.9h-4Z" style="fill:#c2a649"/><path d="M51.54,18.8a5.1,5.1,0,0,0-1.62-.27,3.21,3.21,0,0,0-2,.57,2.59,2.59,0,0,0-1,1.43v9H43.17V15.34h3l.4,2h.35a4.19,4.19,0,0,1,1.45-1.7A3.71,3.71,0,0,1,50.4,15a5.93,5.93,0,0,1,1.68.29Z" style="fill:#c2a649"/><path d="M27.26,42l.48-4.35h-.18l-1.44,3.3-4.86,7.83H19.88l-5.16-7.86-1.41-3.24h-.18L13.76,42V52.52H9.56v-21h4l6.06,9.69,1.14,2.31h.15l1-2.37,5.79-9.63h4v21H27.26Z" style="fill:#9a3a73"/><path d="M39.41,44.45l-5.16-7.68h5.1l2.13,3.06,0,0,1.23,2.79,1.2-2.79,0,0,2.28-3.06h4.62l-5.19,7.56,5.52,8.19h-5L43.55,49l0,0-1.26-2.76L41,49l0,0-2.58,3.54H33.83Z" style="fill:#c2a649"/><path d="M51.74,36.77h2.37v-1a5.32,5.32,0,0,1,.42-2.27,3.63,3.63,0,0,1,1.14-1.41,4.43,4.43,0,0,1,1.67-.73,9,9,0,0,1,2-.21,20.39,20.39,0,0,1,2.51.13,10.93,10.93,0,0,1,2,.44L63,35a7.9,7.9,0,0,0-2.64-.42,2.16,2.16,0,0,0-1.68.48,2.79,2.79,0,0,0-.39,1.71h3.84v3.51H58.31V52.52h-4.2V40.28H51.74Z" style="fill:#c2a649"/></g></svg>