<?xml version="1.0" encoding="UTF-8"?>
<svg id="Layer_1" data-name="Layer 1" xmlns="http://www.w3.org/2000/svg" viewBox="0 0 800 800">
  <defs>
    <style>
      .cls-1, .cls-2 {
        fill: #b5d490;
      }

      .cls-1, .cls-2, .cls-3 {
        stroke-miterlimit: 10;
        stroke-width: 11px;
      }

      .cls-1, .cls-3 {
        stroke: #4f6f2a;
      }

      .cls-2 {
        stroke: #50702a;
      }

      .cls-4 {
        fill: #9b3a43;
      }

      .cls-3 {
        fill: #506f2a;
      }
    </style>
  </defs>
  <path id="jaw" class="cls-3" d="m579.26,244.68l155.06-.35c.65.08,1.06.73.86,1.36-.44,1.36-3.33,5.13-4.03,5.46l-215.21,101.95"/>
  <path id="body" class="cls-1" d="m724.62,199.1s-16.16-35.85-25.9-44.13c-6.07-5.16-21.78-11.14-29.74-11.51-15.79-.75-46.58,9.61-62.36,10.55-10.07.61-30.35-3.61-40.3-1.92-10.71,1.82-31.79,9.54-40.3,16.31-7.74,6.16-19.97,22.15-24.95,30.7-11.64,20.02-21.49,66.59-33.58,86.35-9.22,15.07-32.75,42.34-47.01,52.77-17.6,12.86-60.41,25.22-79.63,35.5-8.93,4.77-25.96,16.36-32.62,23.99-22.11,25.31-53.58,90.42-71,114.17-15.83,21.59-38.86,35.02-54.69,43.17-13.33,6.87-49.02,13.97-62.84,8.16-18.23-7.68-35.67-27.38-40.3-41.26-4.8-14.39,16.79-78.19,16.79-78.19,0,0-28.3,23.51-36.94,60.92-7.75,33.56-7.16,62.43-2.88,77.71,6.72,23.99,31.1,49.68,49.89,59.48,22.07,11.51,53.54,14.39,76.75,14.39,20.15,0,51.13-6.92,70.04-13.43,32.26-11.11,101.22-51.33,101.22-51.33l-3.84,44.13-8.63,78.67,116.09-2.88s12.08-37.84-27.82-80.59c-13.43-14.39,28.78-26.86,54.69-65.24,5.1-7.56-8.63-29.74-8.63-29.74,0,0,59.38-34.23,75.8-49.89,14.16-13.51,37-45.97,46.05-63.32,9.51-18.23,26.86-77.71,26.86-77.71l-39.34,11.51s68.69-20.44,90.19-30.7c11.77-5.62,36.24-17.44,44.13-27.82,7.58-9.97,14.39-47.97,14.39-47.97,0,0-38.41,16.45-51.81,20.15-23.45,6.48-95.94,16.31-95.94,16.31,0,0,49.43-21.48,63.32-32.62,10.23-8.2,22.8-32.83,33.58-40.3,8.98-6.22,41.26-14.39,41.26-14.39Z"/>
  <path id="paw" class="cls-1" d="m568.23,403.46s36.79,3.01,49.89,5.76c15.25,3.2,27.7,9.92,31.66,15.35,6.41,8.79,10.12,19.66,10.55,26.86.34,5.69.48,15.83-5.76,22.07-6.87,6.87-15.31,9.52-21.11,9.59-5.21.07-13.93-1.43-19.19-8.14s2.4-13.45-4.32-19.21c-14.27-12.23-70.52-14.87-70.52-14.87"/>
  <path id="leg" class="cls-2" d="m326.45,489.81s1.71,57.06,4.8,75.8c1.5,9.07,11.38,41.87,17.27,48.93,14.25,17.09,38.08,24.83,51.81,52.77,13.91,28.3,10,52.96,11.81,56.23.44.8,1.34,1.23,2.24,1.09l92.45-15.1s-8.49-21.24-11.03-31.18c-5.28-20.63-29.74-31.66-43.17-45.09-8.32-8.32,11.51-40.3,18.23-47.01,12.42-12.42,15.56-17.95,24.47-33.1,5.62-9.57,14.75-30.23,16.62-41.17,2.11-12.33.33-37.73-2.23-49.98-2.05-9.81-9.59-25.9-14.39-37.42"/>
  <circle class="cls-4" cx="580.22" cy="214.93" r="14.39"/>
</svg>