<svg xmlns="http://www.w3.org/2000/svg" height="90" width="503">
  <path d="M41.1 89.4V42.8c0-4.4-8-8.4-12.5-8.4H21c-4.5 0-12.6 4-12.6 8.4v46.6H0V27.8a8 8 0 017.5 5.6c4-4 9.4-6.3 12.9-6.3h9.8c8.2 0 19.4 7.2 19.4 15.4v47H41m73.4 0h-9.2L91.3 62h-7.6L70 89.4h-8.8l16.2-31-15.7-30.6h9l13.7 27.1h7.4l13.6-27.1h8.5L98.1 58l16.4 31.4m20-15.7c0 4.4 8 8.5 12.6 8.5h8v7.2h-9.6c-8.2 0-19.4-7.2-19.4-15.4V7.5h8.4v20.3h20.7a8.5 8.5 0 01-9 7.2h-11.7v38.7" fill="#d22027"/>
  <path d="M205.2 53.7V42.8c0-4.4-8-8.4-12.5-8.4h-7.6c-4.4 0-12.5 4-12.5 8.4v10.9zm8.4-11.2v18.3h-41v13.5c0 4.5 8 8.5 12.5 8.5h7.9c3.7 0 10-2.8 12-6.4l7.1 4a22.7 22.7 0 01-17.5 9.7h-11c-8.3 0-19.4-7.2-19.4-15.4V42.5c0-8.2 11.1-15.4 19.3-15.4h10.8c8.2 0 19.3 7.2 19.3 15.4m22.9 31.8c0 4.5 7.9 8.5 12.5 8.5h7.4c4.8 0 12.7-4 12.7-8.5V42.8c0-4.4-7.9-8.4-12.7-8.4H249c-4.6 0-12.5 4-12.5 8.4zm11-47.2h9.6c3.8 0 8.2 2 12 5.4V0h8.4v89.4c-2.7 0-6.5-1.8-7.4-5.6a20.7 20.7 0 01-13 6.3h-9.7c-8.2 0-19.3-7.2-19.3-15.4V42.5c0-8.2 11.1-15.4 19.3-15.4m56.4 62.3h-8.4V27.8h8.4zm0-81h-8.4V0h8.4v8.4m25.8 65.3c0 4.4 8 8.5 12.5 8.5h8v7.2h-9.6c-8.2 0-19.4-7.2-19.4-15.4V7.5h8.5v20.3h20.6a8.5 8.5 0 01-8.9 7.2h-11.7v38.7m41.2 15.7h-8.4V27.8h8.4zm0-81h-8.4V0h8.4v8.4m57.6 34.4c0-4.4-8-8.4-12.5-8.4h-7.4c-4.6 0-12.5 4-12.5 8.4v31.5c0 4.5 8 8.5 12.5 8.5h7.4c4.6 0 12.5-4 12.5-8.5zm8.5-.3v32.2c0 8.2-11.2 15.4-19.4 15.4h-10.6c-8.2 0-19.4-7.2-19.4-15.4V42.5c0-8.2 11.2-15.4 19.4-15.4h10.6c8.2 0 19.4 7.2 19.4 15.4m57.7 47V42.7c0-4.4-8-8.4-12.5-8.4h-7.6c-4.5 0-12.6 4-12.6 8.4v46.6h-8.4V27.8a8 8 0 017.5 5.6c4-4 9.4-6.3 12.9-6.3h9.8c8.2 0 19.4 7.2 19.4 15.4v47h-8.5" fill="#fff"/>
</svg>