<?xml version="1.0" encoding="UTF-8"?>
<svg id="Layer_1" data-name="Layer 1" xmlns="http://www.w3.org/2000/svg" viewBox="0 0 510.24 226.77">
  <defs>
    <style>
      .cls-1 {
        fill: #e83943;
      }

      .cls-2 {
        fill: #313b3e;
      }
    </style>
  </defs>
  <g>
    <path class="cls-2" d="m227.28,122.02h-15.6s0-35.12-.02-35.37c-.11-3.51-.37-11.73,5.34-17.62,2.35-2.42,6.64-5.31,13.77-5.31h23.34v15.6h-23.34c-3.7,0-3.5,1.8-3.5,7.96v34.75Z"/>
    <rect class="cls-1" x="269.77" y="63.72" width="15.6" height="15.6"/>
    <g>
      <polygon class="cls-2" points="269.72 79.32 254.17 79.32 254.17 122.02 269.77 122.02 269.77 79.32 269.72 79.32"/>
      <path class="cls-2" d="m273.27,23.28c-7.13,0-11.43,2.89-13.78,5.31-5.7,5.88-5.45,14.11-5.34,17.62,0,.25.02.46.02.63v16.88h15.6v-16.88c0-4.99-.5-7.96,3.5-7.96h28.54v-15.6h-28.54Z"/>
    </g>
  </g>
  <path class="cls-2" d="m29.48,190.23c-.3.12-.74.25-1.33.4-.59.15-1.24.22-1.95.22-2.54,0-3.81-1.06-3.81-3.19v-30.02c0-1.36.25-2.43.75-3.23.5-.8,1.34-1.58,2.52-2.35,1.53-1,3.62-1.87,6.24-2.61,2.63-.74,5.59-1.11,8.9-1.11,4.72,0,7.08,1.18,7.08,3.54,0,.59-.09,1.14-.27,1.64-.18.5-.41.93-.71,1.28-.59-.12-1.36-.23-2.3-.35-.94-.12-1.89-.18-2.83-.18-2.72,0-5.11.28-7.17.84-2.07.56-3.78,1.23-5.14,1.99v33.12Z"/>
  <path class="cls-2" d="m54.18,174.11c1.59,7.73,6.67,11.6,15.23,11.6,2.48,0,4.72-.41,6.73-1.24,2.01-.83,3.6-1.71,4.78-2.66,1.42.83,2.13,1.95,2.13,3.36,0,.83-.37,1.62-1.11,2.39-.74.77-1.74,1.45-3.01,2.04-1.27.59-2.75,1.06-4.43,1.42-1.68.35-3.5.53-5.45.53-6.85,0-12.26-1.86-16.25-5.58-3.98-3.72-5.98-9.15-5.98-16.29,0-3.37.49-6.36,1.46-8.99.97-2.63,2.33-4.86,4.07-6.69,1.74-1.83,3.82-3.23,6.24-4.21,2.42-.97,5.05-1.46,7.88-1.46,2.66,0,5.1.44,7.35,1.33,2.24.89,4.18,2.14,5.8,3.76,1.62,1.62,2.89,3.54,3.81,5.76.91,2.21,1.37,4.65,1.37,7.3,0,1.3-.3,2.23-.89,2.79-.59.56-1.42.9-2.48,1.02l-27.27,3.81Zm12.22-20.01c-3.6,0-6.58,1.26-8.94,3.76-2.36,2.51-3.6,6.1-3.72,10.76l24.35-3.36c-.3-3.25-1.43-5.92-3.41-8.01-1.98-2.1-4.74-3.14-8.28-3.14Z"/>
  <path class="cls-2" d="m138.3,156.22c-1.65-1.36-3.87-2.04-6.64-2.04-3.84,0-7.26,1.36-10.27,4.07.35,1.18.53,2.45.53,3.81v28.16c-.3.12-.75.25-1.37.4-.62.15-1.26.22-1.9.22-2.54,0-3.81-1.06-3.81-3.19v-25.06c0-2.89-.83-5.02-2.48-6.38-1.65-1.36-3.9-2.04-6.73-2.04-1.89,0-3.67.3-5.36.89-1.68.59-3.11,1.27-4.29,2.04v33.12c-.3.12-.74.25-1.33.4-.59.15-1.24.22-1.95.22-2.54,0-3.81-1.06-3.81-3.19v-30.2c0-1.18.25-2.17.75-2.97.5-.8,1.37-1.61,2.61-2.43,1.59-1,3.62-1.87,6.07-2.61,2.45-.74,4.91-1.11,7.39-1.11,2.89,0,5.46.43,7.7,1.28,2.24.86,3.95,2.02,5.14,3.5,1.53-1.36,3.45-2.49,5.76-3.41,2.3-.91,4.93-1.37,7.88-1.37,4.78,0,8.59,1.14,11.42,3.41,2.83,2.27,4.25,5.77,4.25,10.49v27.98c-.3.12-.75.25-1.37.4-.62.15-1.25.22-1.9.22-2.54,0-3.81-1.06-3.81-3.19v-25.06c0-2.89-.83-5.02-2.48-6.38Z"/>
  <path class="cls-2" d="m192.94,169.95c0,3.31-.47,6.29-1.42,8.94-.94,2.66-2.29,4.93-4.03,6.82-1.74,1.89-3.85,3.34-6.33,4.34-2.48,1-5.26,1.51-8.32,1.51s-5.84-.5-8.32-1.51c-2.48-1-4.6-2.45-6.38-4.34-1.77-1.89-3.13-4.16-4.07-6.82-.95-2.66-1.42-5.64-1.42-8.94s.49-6.29,1.46-8.94c.97-2.66,2.35-4.93,4.12-6.82,1.77-1.89,3.9-3.34,6.38-4.34,2.48-1,5.22-1.5,8.24-1.5s5.76.5,8.23,1.5c2.48,1,4.59,2.45,6.33,4.34,1.74,1.89,3.1,4.16,4.07,6.82.97,2.66,1.46,5.64,1.46,8.94Zm-20.1-15.76c-4.02,0-7.17,1.39-9.48,4.16-2.3,2.78-3.45,6.64-3.45,11.6s1.14,8.9,3.41,11.64c2.27,2.75,5.45,4.12,9.52,4.12s7.23-1.39,9.47-4.16c2.24-2.77,3.36-6.64,3.36-11.6s-1.14-8.82-3.41-11.6c-2.27-2.77-5.42-4.16-9.43-4.16Z"/>
  <path class="cls-2" d="m211.71,191.55c-4.13,0-7.48-.92-10.05-2.74-2.57-1.83-3.85-4.87-3.85-9.12v-42.06c.29-.12.75-.25,1.37-.4.62-.15,1.28-.22,1.99-.22,2.48,0,3.72,1.06,3.72,3.19v10.18h14.52c.18.3.35.7.53,1.2.18.5.27,1.05.27,1.64,0,2.01-.89,3.01-2.66,3.01h-12.66v23.02c0,2.36.66,4.03,1.99,5,1.33.97,3.2,1.46,5.62,1.46,1,0,2.13-.18,3.37-.53,1.24-.35,2.27-.77,3.1-1.24.35.35.68.8.97,1.33.3.53.44,1.15.44,1.86,0,1.3-.77,2.36-2.3,3.19-1.54.83-3.66,1.24-6.38,1.24Z"/>
  <path class="cls-2" d="m228.18,174.11c1.59,7.73,6.67,11.6,15.23,11.6,2.48,0,4.72-.41,6.73-1.24,2.01-.83,3.6-1.71,4.78-2.66,1.42.83,2.12,1.95,2.12,3.36,0,.83-.37,1.62-1.11,2.39-.74.77-1.74,1.45-3.01,2.04-1.27.59-2.74,1.06-4.43,1.42-1.68.35-3.5.53-5.45.53-6.85,0-12.26-1.86-16.25-5.58-3.98-3.72-5.98-9.15-5.98-16.29,0-3.37.49-6.36,1.46-8.99.97-2.63,2.33-4.86,4.07-6.69,1.74-1.83,3.82-3.23,6.24-4.21,2.42-.97,5.05-1.46,7.88-1.46,2.66,0,5.11.44,7.35,1.33,2.24.89,4.18,2.14,5.8,3.76,1.62,1.62,2.89,3.54,3.81,5.76.91,2.21,1.37,4.65,1.37,7.3,0,1.3-.3,2.23-.89,2.79-.59.56-1.42.9-2.48,1.02l-27.27,3.81Zm12.22-20.01c-3.6,0-6.58,1.26-8.94,3.76-2.36,2.51-3.6,6.1-3.72,10.76l24.35-3.36c-.3-3.25-1.43-5.92-3.41-8.01-1.98-2.1-4.74-3.14-8.28-3.14Z"/>
  <path class="cls-2" d="m281.58,151.8h17.53c.18.29.35.68.53,1.15.18.47.27,1.03.27,1.68,0,1.95-.92,2.92-2.75,2.92h-15.5v32.68c-.29.12-.74.25-1.33.4-.59.15-1.24.22-1.95.22-2.54,0-3.81-1.06-3.81-3.19v-41.79c0-5.2,1.4-8.96,4.21-11.29,2.8-2.33,6.71-3.5,11.73-3.5,3.37,0,6.01.44,7.93,1.33,1.92.89,2.88,1.98,2.88,3.28s-.5,2.39-1.5,3.28c-1.06-.59-2.39-1.08-3.98-1.46-1.59-.38-3.13-.57-4.6-.57-3.6,0-6.11.74-7.53,2.21-1.42,1.48-2.12,3.84-2.12,7.08v5.58Z"/>
  <path class="cls-2" d="m302.65,136.56c0-1.24.43-2.29,1.29-3.14.86-.86,1.96-1.28,3.32-1.28s2.45.43,3.28,1.28c.83.86,1.24,1.9,1.24,3.14s-.41,2.29-1.24,3.14c-.83.86-1.92,1.28-3.28,1.28s-2.46-.43-3.32-1.28c-.86-.86-1.29-1.9-1.29-3.14Zm8.15,53.66c-.3.12-.74.25-1.33.4-.59.15-1.24.22-1.95.22-2.54,0-3.81-1.06-3.81-3.19v-37.99c.29-.12.75-.25,1.37-.4.62-.15,1.28-.22,1.99-.22,2.48,0,3.72,1.09,3.72,3.28v37.9Z"/>
  <path class="cls-2" d="m325.05,190.63c-.59.15-1.24.22-1.95.22-2.54,0-3.81-1.06-3.81-3.19v-54.64c.3-.12.75-.25,1.37-.4.62-.15,1.25-.22,1.9-.22,2.54,0,3.81,1.06,3.81,3.19v54.64c-.3.12-.74.25-1.33.4Z"/>
  <path class="cls-2" d="m383.58,156.22c-1.65-1.36-3.87-2.04-6.64-2.04-3.84,0-7.26,1.36-10.27,4.07.35,1.18.53,2.45.53,3.81v28.16c-.3.12-.75.25-1.37.4-.62.15-1.25.22-1.9.22-2.54,0-3.81-1.06-3.81-3.19v-25.06c0-2.89-.83-5.02-2.48-6.38-1.65-1.36-3.89-2.04-6.73-2.04-1.89,0-3.68.3-5.36.89-1.68.59-3.11,1.27-4.29,2.04v33.12c-.3.12-.74.25-1.33.4-.59.15-1.24.22-1.95.22-2.54,0-3.81-1.06-3.81-3.19v-30.2c0-1.18.25-2.17.75-2.97.5-.8,1.37-1.61,2.61-2.43,1.59-1,3.62-1.87,6.07-2.61,2.45-.74,4.92-1.11,7.39-1.11,2.89,0,5.46.43,7.7,1.28,2.24.86,3.95,2.02,5.14,3.5,1.53-1.36,3.45-2.49,5.76-3.41,2.3-.91,4.93-1.37,7.88-1.37,4.78,0,8.59,1.14,11.42,3.41,2.83,2.27,4.25,5.77,4.25,10.49v27.98c-.3.12-.75.25-1.37.4-.62.15-1.25.22-1.9.22-2.54,0-3.81-1.06-3.81-3.19v-25.06c0-2.89-.83-5.02-2.48-6.38Z"/>
  <path class="cls-2" d="m399.61,136.56c0-1.24.43-2.29,1.29-3.14.85-.86,1.96-1.28,3.32-1.28s2.45.43,3.28,1.28c.83.86,1.24,1.9,1.24,3.14s-.41,2.29-1.24,3.14c-.83.86-1.92,1.28-3.28,1.28s-2.46-.43-3.32-1.28c-.86-.86-1.29-1.9-1.29-3.14Zm8.15,53.66c-.29.12-.74.25-1.33.4-.59.15-1.24.22-1.95.22-2.54,0-3.81-1.06-3.81-3.19v-37.99c.29-.12.75-.25,1.37-.4.62-.15,1.28-.22,1.99-.22,2.48,0,3.72,1.09,3.72,3.28v37.9Z"/>
  <path class="cls-2" d="m440.92,156.49c-1.86-1.53-4.35-2.3-7.48-2.3-2.36,0-4.46.3-6.29.89-1.83.59-3.39,1.27-4.69,2.04v33.12c-.3.12-.74.25-1.33.4-.59.15-1.24.22-1.95.22-2.54,0-3.81-1.06-3.81-3.19v-30.2c0-1.24.25-2.26.75-3.05.5-.8,1.37-1.58,2.61-2.35,1.53-.94,3.57-1.8,6.11-2.57,2.54-.77,5.4-1.15,8.59-1.15,5.37,0,9.61,1.21,12.71,3.63,3.1,2.42,4.65,6.23,4.65,11.42v26.83c-.3.12-.75.25-1.37.4-.62.15-1.25.22-1.9.22-2.54,0-3.81-1.06-3.81-3.19v-23.91c0-3.3-.93-5.72-2.79-7.26Z"/>
  <path class="cls-2" d="m485.24,186.15c-1,.83-2.38,1.54-4.12,2.12-1.74.59-3.82.89-6.24.89-2.6,0-5.05-.37-7.35-1.11-2.3-.74-4.33-1.92-6.07-3.54-1.74-1.62-3.13-3.73-4.16-6.33-1.03-2.6-1.55-5.76-1.55-9.47,0-3.37.5-6.32,1.5-8.86,1-2.54,2.41-4.66,4.21-6.38,1.8-1.71,3.94-3,6.42-3.85,2.48-.86,5.22-1.28,8.23-1.28,2.71,0,5.21.34,7.48,1.02,2.27.68,4.18,1.52,5.71,2.52.89.59,1.61,1.25,2.17,1.99.56.74.84,1.64.84,2.7v35.6c0,2.95-.49,5.45-1.46,7.48-.97,2.04-2.33,3.69-4.07,4.96-1.74,1.27-3.79,2.2-6.15,2.79-2.36.59-4.9.89-7.62.89-3.01,0-5.57-.31-7.66-.93-2.1-.62-3.53-1.17-4.3-1.64-1.77-1-2.66-2.27-2.66-3.81,0-.83.19-1.52.58-2.08.38-.56.87-.99,1.46-1.28,1.24.94,2.98,1.82,5.22,2.61,2.24.8,4.69,1.2,7.35,1.2,3.95,0,6.98-.84,9.08-2.52,2.1-1.68,3.14-4.38,3.14-8.1v-5.58Zm-9.56-2.83c2.36,0,4.29-.37,5.8-1.11,1.51-.74,2.76-1.58,3.76-2.52v-23.02c-1-.65-2.26-1.22-3.76-1.73-1.51-.5-3.29-.75-5.36-.75-4.01,0-7.22,1.21-9.61,3.63-2.39,2.42-3.59,6.02-3.59,10.8,0,2.66.32,4.92.97,6.77.65,1.86,1.55,3.38,2.7,4.56,1.15,1.18,2.51,2.04,4.07,2.57,1.56.53,3.23.8,5,.8Z"/>
</svg>