<?xml version="1.0" encoding="UTF-8"?>
<!-- Generator: Adobe Illustrator 19.0.0, SVG Export Plug-In . SVG Version: 6.00 Build 0)  -->
<svg xmlns="http://www.w3.org/2000/svg" xmlns:xlink="http://www.w3.org/1999/xlink" version="1.1" id="Layer_1" x="0px" y="0px" viewBox="0 0 408.2 95.8" style="enable-background:new 0 0 408.2 95.8;" xml:space="preserve">
<style type="text/css">
	.st0{fill:#F57F20;}
	.st1{fill:#666766;}
	.st2{fill:#666766;stroke:#B7B7B8;stroke-width:0.5;stroke-miterlimit:10;}
</style>
<path id="XMLID_27_" class="st0" d="M99,53.3c-3.1,0-5.5-2.5-5.5-5.5c0-3,2.5-5.5,5.5-5.5c3.1,0,5.5,2.5,5.5,5.5  C104.5,50.8,102,53.3,99,53.3z M101.3,31.5c-0.8-2.5-3.6-3.9-6-3c-2.5,0.8-3.9,3.5-3,6c0.8,2.5,3.5,3.9,6,3  C100.8,36.7,102.1,34,101.3,31.5z M94,19c-1.3-1.8-3.8-2.3-5.6-1c-1.8,1.3-2.3,3.8-1,5.6c1.3,1.9,3.8,2.3,5.7,1  C94.9,23.3,95.3,20.8,94,19z M83.9,9.4c-1.5-1.2-3.7-1-4.9,0.5c-1.2,1.5-1,3.7,0.5,4.9c1.5,1.2,3.7,1,4.9-0.5  C85.6,12.8,85.4,10.6,83.9,9.4z M72.7,3.6C71.3,3,69.6,3.6,69,5c-0.6,1.4,0,3.1,1.4,3.8c1.4,0.7,3.1,0.1,3.8-1.4  C74.8,6,74.2,4.3,72.7,3.6z M62.1,0.8c-1.3-0.3-2.6,0.6-2.9,1.9c-0.3,1.3,0.6,2.6,1.9,2.9C62.4,5.8,63.7,5,64,3.6  C64.3,2.3,63.4,1,62.1,0.8z M52.2,0c-1.2,0-2.1,0.9-2.1,2.1c0,1.2,0.9,2.1,2.1,2.1c1.2,0,2.1-0.9,2.1-2.1C54.3,0.9,53.4,0,52.2,0z   M11,47.8c0-3-2.5-5.5-5.5-5.5c-3,0-5.5,2.5-5.5,5.5c0,3.1,2.5,5.5,5.5,5.5C8.6,53.3,11,50.8,11,47.8z M12.3,61.1  c-0.8-2.5-3.5-3.9-6-3c-2.5,0.8-3.9,3.6-3.1,6c0.8,2.5,3.5,3.9,6,3C11.7,66.3,13.1,63.6,12.3,61.1z M17.1,72c-1.3-1.8-3.8-2.3-5.7-1  c-1.8,1.3-2.3,3.8-1.1,5.7c1.3,1.8,3.8,2.3,5.7,1C17.9,76.4,18.4,73.8,17.1,72z M25,80.8c-1.5-1.2-3.7-1-4.9,0.5  c-1.2,1.5-1,3.7,0.5,4.9c1.5,1.3,3.7,1,4.9-0.5C26.7,84.2,26.5,82,25,80.8z M34.1,86.8c-1.4-0.7-3.1-0.1-3.8,1.4  c-0.6,1.4,0,3.1,1.4,3.8c1.4,0.7,3.1,0.1,3.8-1.4C36.2,89.1,35.5,87.4,34.1,86.8z M43.4,90c-1.3-0.3-2.6,0.6-2.9,1.9  c-0.3,1.3,0.6,2.6,1.9,2.9c1.3,0.3,2.6-0.6,2.9-1.9C45.6,91.6,44.7,90.3,43.4,90z M52.3,91.4c-1.2,0-2.1,1-2.1,2.1  c0,1.2,0.9,2.1,2.1,2.1c1.2,0,2.1-0.9,2.1-2.1C54.4,92.3,53.4,91.4,52.3,91.4z M6.2,37.6c2.5,0.8,5.2-0.5,6-3c0.8-2.5-0.5-5.2-3-6  c-2.5-0.8-5.2,0.5-6,3C2.4,34,3.7,36.7,6.2,37.6z M11.5,24.6c1.8,1.3,4.4,0.8,5.7-1c1.3-1.9,0.8-4.4-1.1-5.7c-1.8-1.3-4.4-0.8-5.6,1  C9.2,20.8,9.6,23.4,11.5,24.6z M20.1,14.3c1.2,1.5,3.4,1.7,4.9,0.5c1.5-1.2,1.7-3.4,0.5-4.9c-1.2-1.5-3.4-1.7-4.9-0.5  C19.1,10.6,18.9,12.8,20.1,14.3z M30.4,7.4c0.7,1.4,2.4,2,3.8,1.4c1.4-0.6,2-2.3,1.4-3.8c-0.7-1.4-2.4-2-3.8-1.4  C30.3,4.3,29.7,6,30.4,7.4z M40.5,3.6c0.3,1.4,1.6,2.2,2.9,1.9c1.3-0.3,2.2-1.6,1.9-2.9c-0.3-1.3-1.6-2.2-2.9-1.9  C41.1,1,40.2,2.3,40.5,3.6z M95.3,67.1c2.5,0.8,5.2-0.5,6-3.1c0.8-2.5-0.5-5.2-3.1-6c-2.5-0.8-5.2,0.5-6,3  C91.4,63.6,92.8,66.3,95.3,67.1z M88.4,77.6c1.8,1.3,4.4,0.8,5.6-1c1.3-1.9,0.8-4.4-1-5.7c-1.9-1.3-4.4-0.8-5.7,1  C86.1,73.8,86.5,76.4,88.4,77.6z M79,85.7c1.2,1.5,3.4,1.7,4.9,0.5c1.5-1.2,1.7-3.4,0.5-4.9c-1.2-1.5-3.4-1.7-4.9-0.4  C78,82,77.7,84.2,79,85.7z M69,90.6c0.7,1.4,2.4,2.1,3.8,1.4c1.4-0.7,2-2.4,1.4-3.8c-0.7-1.4-2.3-2-3.8-1.4  C68.9,87.4,68.3,89.1,69,90.6z M59.2,92.9c0.3,1.3,1.6,2.2,2.9,1.9c1.3-0.3,2.2-1.6,1.9-2.9c-0.3-1.3-1.6-2.2-2.9-1.9  C59.8,90.3,58.9,91.6,59.2,92.9z M87.3,28.7c-1.1-2-3.7-2.8-5.7-1.7c-2,1.1-2.8,3.7-1.7,5.7c1.1,2.1,3.7,2.8,5.7,1.7  C87.6,33.3,88.4,30.8,87.3,28.7z M79.4,18.8c-1.6-1.5-4.1-1.4-5.5,0.2c-1.4,1.6-1.4,4.1,0.2,5.5c1.6,1.5,4.1,1.4,5.5-0.2  C81,22.7,81,20.2,79.4,18.8z M69.5,12.8c-1.6-0.8-3.6-0.2-4.4,1.5C64.3,16,65,18,66.6,18.8c1.7,0.8,3.7,0.2,4.5-1.5  C71.9,15.6,71.2,13.6,69.5,12.8z M59.5,10.4c-1.6-0.3-3,0.7-3.3,2.2c-0.3,1.5,0.7,3,2.2,3.3c1.5,0.3,3-0.7,3.3-2.2  C62,12.1,61,10.7,59.5,10.4z M49.8,10.7c-1.2,0.1-2.1,1.1-2,2.3c0.1,1.2,1.1,2.1,2.3,2c1.2-0.1,2.1-1.1,2-2.3  C52.1,11.5,51.1,10.6,49.8,10.7z M41.7,12.7c-1,0.3-1.5,1.3-1.2,2.3c0.3,1,1.3,1.6,2.3,1.3c1-0.3,1.5-1.4,1.2-2.3  C43.7,12.9,42.7,12.4,41.7,12.7z M34.8,15.8c-0.8,0.4-1.1,1.4-0.6,2.2c0.4,0.8,1.4,1.1,2.2,0.6c0.8-0.4,1.1-1.4,0.7-2.2  C36.5,15.6,35.5,15.3,34.8,15.8z M24.6,62.8c-1.1-2-3.7-2.8-5.7-1.7c-2,1.1-2.8,3.7-1.7,5.7c1.1,2,3.7,2.8,5.7,1.7  C25,67.4,25.7,64.9,24.6,62.8z M30.5,71.1c-1.6-1.5-4.1-1.4-5.5,0.2c-1.5,1.6-1.4,4.1,0.2,5.5c1.6,1.5,4.1,1.4,5.5-0.2  C32.1,75,32.1,72.6,30.5,71.1z M37.6,76.6c-1.6-0.8-3.6-0.1-4.5,1.5c-0.8,1.6-0.2,3.6,1.5,4.5c1.6,0.8,3.6,0.1,4.5-1.5  C39.9,79.5,39.3,77.5,37.6,76.6z M46.1,79.7c-1.5-0.3-3,0.7-3.3,2.2c-0.3,1.6,0.7,3,2.2,3.3c1.6,0.3,3-0.7,3.3-2.2  C48.6,81.5,47.6,80,46.1,79.7z M54.3,80.5c-1.2,0.1-2.1,1.1-2,2.3c0.1,1.2,1.1,2.1,2.3,2c1.2-0.1,2.1-1.1,2-2.3  C56.6,81.4,55.5,80.5,54.3,80.5z M61.7,79.3c-1,0.3-1.5,1.3-1.3,2.3c0.3,1,1.3,1.6,2.3,1.3c1-0.3,1.6-1.4,1.2-2.4  C63.8,79.6,62.7,79.1,61.7,79.3z M68.1,77c-0.8,0.4-1,1.4-0.6,2.2c0.4,0.8,1.4,1.1,2.2,0.6c0.8-0.4,1.1-1.4,0.6-2.2  C69.9,76.9,68.9,76.6,68.1,77z M17.6,57.4c1.8-0.3,3-2.1,2.7-3.9c-0.3-1.8-2-3-3.9-2.7c-1.8,0.3-3,2-2.7,3.9  C14,56.5,15.8,57.8,17.6,57.4z M16.5,46.8c1.5,0.2,2.8-0.9,3-2.4c0.1-1.5-1-2.8-2.5-3c-1.5-0.2-2.8,0.9-3,2.4  C13.9,45.3,15,46.6,16.5,46.8z M18.5,37c1.3,0.5,2.8-0.1,3.4-1.4c0.5-1.3-0.1-2.8-1.4-3.3c-1.3-0.5-2.8,0.1-3.4,1.4  C16.6,35,17.2,36.5,18.5,37z M22.8,28.7c1,0.7,2.3,0.5,3-0.5c0.7-0.9,0.5-2.3-0.4-3c-1-0.7-2.3-0.5-3,0.4  C21.7,26.6,21.9,28,22.8,28.7z M28.2,22.5c0.7,0.8,1.9,0.9,2.6,0.2c0.8-0.7,0.9-1.9,0.2-2.7c-0.7-0.8-1.9-0.9-2.6-0.2  C27.7,20.5,27.6,21.7,28.2,22.5z M88.1,44.7c1.8-0.3,3-2.1,2.7-3.9c-0.3-1.8-2-3-3.9-2.7c-1.8,0.3-3,2.1-2.7,3.9  C84.6,43.8,86.3,45.1,88.1,44.7z M87.4,54.2c1.5,0.2,2.8-0.9,3-2.4c0.2-1.5-0.9-2.8-2.4-3c-1.5-0.1-2.8,0.9-3,2.4  C84.8,52.7,85.9,54.1,87.4,54.2z M84,63.3c1.3,0.5,2.8-0.1,3.3-1.4c0.5-1.3-0.1-2.8-1.4-3.3c-1.3-0.5-2.8,0.1-3.3,1.4  C82.1,61.3,82.7,62.8,84,63.3z M79.1,70.4c1,0.7,2.3,0.5,3-0.5c0.7-1,0.5-2.3-0.4-3c-1-0.7-2.4-0.5-3,0.4  C77.9,68.3,78.1,69.6,79.1,70.4z M73.4,75.5c0.7,0.8,1.9,0.9,2.7,0.2c0.8-0.7,0.9-1.9,0.2-2.6c-0.7-0.8-1.9-0.8-2.6-0.2  C72.8,73.6,72.7,74.7,73.4,75.5z M72.9,27.2c-1.6-1.6-4.1-1.6-5.6,0c-1.5,1.5-1.5,4,0,5.5c1.5,1.6,4,1.6,5.6,0  C74.5,31.2,74.5,28.8,72.9,27.2z M63,21.1c-1.8-0.7-3.9,0.2-4.6,1.9c-0.7,1.8,0.2,3.9,2,4.7c1.9,0.7,3.9-0.2,4.6-2  C65.7,23.9,64.8,21.8,63,21.1z M52.3,19.8c-1.7,0-3.2,1.4-3.2,3.2c0,1.6,1.4,3.1,3.1,3.1c1.7,0,3.1-1.4,3.1-3.1  C55.4,21.2,54,19.8,52.3,19.8z M42,23c-1.2,0.5-1.8,1.8-1.3,3c0.5,1.2,1.9,1.8,3.1,1.3c1.2-0.5,1.7-1.9,1.2-3.1  C44.5,23,43.1,22.5,42,23z M37,62.9c-1.5-1.6-4-1.6-5.5,0c-1.6,1.6-1.6,4-0.1,5.6c1.6,1.5,4.1,1.6,5.6,0  C38.6,66.9,38.6,64.4,37,62.9z M44.1,68c-1.8-0.8-3.9,0.2-4.6,2c-0.7,1.8,0.2,3.9,2,4.6c1.8,0.7,3.9-0.1,4.6-1.9  C46.8,70.8,45.9,68.7,44.1,68z M52.1,69.6c-1.7,0-3.1,1.4-3.1,3.1c0,1.8,1.4,3.1,3.1,3.2c1.7,0,3.1-1.4,3.2-3.1  C55.3,71,53.9,69.6,52.1,69.6z M60.6,68.4c-1.2,0.5-1.8,1.8-1.3,3c0.5,1.2,1.9,1.8,3,1.3c1.2-0.5,1.8-1.8,1.2-3.1  C63.2,68.4,61.8,67.9,60.6,68.4z M29.8,60.1c1.7-0.6,2.6-2.5,1.9-4.3c-0.6-1.7-2.6-2.5-4.3-1.8c-1.7,0.7-2.5,2.6-1.9,4.3  C26.2,59.9,28.1,60.7,29.8,60.1z M27.3,50c1.4,0,2.6-1.1,2.6-2.5c0-1.4-1.1-2.6-2.5-2.6c-1.4,0-2.6,1.1-2.6,2.5  C24.7,48.8,25.8,49.9,27.3,50z M28.7,40.4c1.1,0.4,2.4-0.1,2.8-1.2c0.4-1.1-0.1-2.3-1.1-2.8c-1.1-0.5-2.4,0.1-2.8,1.2  C27.1,38.6,27.6,39.9,28.7,40.4z M77,41.7c1.7-0.6,2.5-2.6,1.8-4.3c-0.6-1.7-2.5-2.6-4.2-1.9c-1.8,0.7-2.6,2.6-1.9,4.3  C73.4,41.6,75.3,42.4,77,41.7z M77,50.8c1.4,0,2.6-1.1,2.6-2.5c0-1.4-1.1-2.6-2.5-2.6c-1.4,0-2.6,1.1-2.6,2.5  C74.5,49.6,75.6,50.8,77,50.8z M74,59.2c1.1,0.5,2.4-0.1,2.8-1.1c0.5-1.1-0.1-2.4-1.1-2.8c-1.1-0.5-2.3,0-2.8,1.1  C72.4,57.5,73,58.8,74,59.2z M33.4,32c0.9,0.8,2.2,0.9,3.1,0c0.8-0.8,0.8-2.2,0-3c-0.8-0.8-2.2-0.8-3,0C32.6,29.7,32.6,31.1,33.4,32  z M67.9,66.7c0.9,0.9,2.2,0.9,3,0c0.8-0.8,0.9-2.1,0-3c-0.8-0.9-2.2-0.9-3-0.1C67.1,64.5,67.1,65.9,67.9,66.7z M48.2,29.7  c-1.7,0.3-2.7,2-2.4,3.6c0.4,1.7,2,2.7,3.7,2.3c1.6-0.4,2.7-2,2.3-3.7C51.5,30.4,49.8,29.3,48.2,29.7z M39.2,34.8  c-1.1,1.2-1.2,3,0,4.2c1.2,1.2,3,1.2,4.2,0c1.1-1.1,1.1-3,0-4.2C42.2,33.6,40.4,33.6,39.2,34.8z M35.5,43.4  c-0.3,1.1,0.3,2.1,1.4,2.5c1,0.3,2.1-0.4,2.4-1.4c0.3-1.1-0.4-2.1-1.4-2.4C36.9,41.8,35.8,42.4,35.5,43.4z M55,60.1  c-1.6,0.4-2.7,2-2.3,3.6c0.3,1.7,2,2.7,3.7,2.4c1.7-0.3,2.7-2,2.4-3.7C58.3,60.8,56.7,59.8,55,60.1z M61.2,56.9  c-1.1,1.2-1.1,3,0,4.2c1.2,1.1,3,1.1,4.1,0c1.2-1.1,1.2-3.1,0.1-4.2C64.2,55.7,62.3,55.7,61.2,56.9z M65.2,51.3  c-0.2,1.1,0.3,2.2,1.4,2.4c1.1,0.3,2.2-0.4,2.5-1.4c0.3-1.1-0.4-2.1-1.4-2.4C66.6,49.7,65.5,50.3,65.2,51.3z M60.3,34.3  c0.5-1.4-0.2-3-1.6-3.5c-1.4-0.6-2.9,0.2-3.6,1.6c-0.5,1.4,0.2,2.9,1.6,3.5C58.2,36.4,59.8,35.7,60.3,34.3z M49.4,63.5  c0.6-1.4-0.2-3-1.6-3.5c-1.4-0.6-3,0.1-3.6,1.6c-0.5,1.4,0.2,2.9,1.6,3.5C47.3,65.6,48.8,64.9,49.4,63.5z M65.5,40  c0.9-0.7,1-2,0.4-2.9c-0.7-0.8-2-1-2.8-0.3c-0.8,0.7-1,1.9-0.3,2.8C63.4,40.5,64.7,40.7,65.5,40z M41.5,58.9c0.9-0.7,1-2,0.4-2.9  c-0.7-0.8-2-1-2.9-0.3c-0.8,0.6-1,1.9-0.3,2.8C39.3,59.4,40.6,59.6,41.5,58.9z M67.4,46.3c0.8-0.2,1.2-0.9,1.1-1.7  c-0.2-0.8-0.9-1.3-1.7-1.1c-0.8,0.1-1.3,0.9-1.1,1.7C65.8,45.9,66.6,46.4,67.4,46.3z M37.9,52.4c0.8-0.2,1.2-0.9,1.1-1.7  c-0.2-0.8-0.9-1.3-1.7-1.1c-0.8,0.1-1.3,0.9-1.1,1.7C36.3,52,37.1,52.6,37.9,52.4z"/>
<path id="XMLID_5_" class="st1" d="M154.7,69.1h-6.2c-0.6,0-0.8-0.5-1-1l-7.3-12.3H139c-1.3,0-5.4-0.1-6.6-0.2v12.6c0,0.6-0.4,1-1,1  h-5.1c-0.6,0-1-0.5-1-1V34.7c0-1,0.6-1.4,1.6-1.5c2.6-0.4,8.3-0.7,12.1-0.7c7.8,0,15.1,2.8,15.1,11.5v0.5c0,5.4-2.7,8.3-6.9,10  l8,13.6c0.1,0.1,0.1,0.3,0.1,0.4C155.3,68.8,155.1,69.1,154.7,69.1z M147.1,44c0-3.8-3-5.4-8.1-5.4c-1.1,0-5.7,0.1-6.6,0.2v11  c0.8,0.1,5.7,0.2,6.6,0.2c5.2,0,8.1-1,8.1-5.5V44z M168.9,59c0,4.3,0.2,4.4,4,4.4h12.9c0.6,0,1,0.5,1,1v3.3c0,0.7-0.3,1-1,1.1  c-1.6,0.3-4.9,0.7-11,0.7c-8.5,0-12.9,0.1-12.9-10.4V42.9c0-10.5,4.5-10.4,12.9-10.4c6.1,0,9.4,0.5,11,0.7c0.8,0.1,1,0.4,1,1.1v3.3  c0,0.6-0.5,1-1,1h-12.9c-3.8,0-4,0.1-4,4.4v4.7h16.3c0.6,0,1,0.5,1,1v3.7c0,0.6-0.5,1-1,1h-16.3V59z M209.7,69.5  c-8.2,0-15.2-3.6-15.2-14.4V33.9c0-0.6,0.5-1,1-1h5c0.6,0,1,0.4,1,1v21.2c0,5.8,2.7,8.6,8.2,8.6c5.5,0,8.2-2.8,8.2-8.6V33.9  c0-0.6,0.5-1,1-1h5c0.6,0,1,0.4,1,1v21.2C224.9,65.9,217.9,69.5,209.7,69.5z M258.4,38.8h-10.2v29.2c0,0.6-0.5,1-1,1h-5  c-0.6,0-1-0.5-1-1V38.8H231c-0.6,0-1-0.3-1-0.9v-4c0-0.6,0.5-1,1-1h27.4c0.6,0,1,0.4,1,1v4C259.4,38.5,259,38.8,258.4,38.8z   M327.6,69.1l-6.2,0c-0.6,0-0.8-0.5-1-1L313,55.7h-1.1c-1.3,0-5.4-0.1-6.6-0.2v12.6c0,0.6-0.4,1-1,1h-5.1c-0.6,0-1-0.5-1-1V34.7  c0-1,0.6-1.4,1.6-1.5c2.6-0.4,8.3-0.7,12.1-0.7c7.8,0,15.1,2.8,15.1,11.5v0.5c0,5.4-2.7,8.3-6.9,10l8,13.6c0.1,0.1,0.1,0.3,0.1,0.4  C328.2,68.8,328,69.1,327.6,69.1z M319.9,44c0-3.8-3-5.4-8.1-5.4c-1.1,0-5.7,0.1-6.6,0.2v11c0.8,0.1,5.8,0.2,6.6,0.2  c5.3,0,8.1-1,8.1-5.5V44z M347,69.5c-4.5,0-9.1-0.8-11.5-1.3c-0.5-0.1-1-0.5-1-1v-3.7c0-0.6,0.5-1,1-1c0,0,0,0,0.1,0  c2,0.3,6.8,0.9,11.5,0.9c4.5,0,5.9-1.6,5.9-4.6c0-3.8-9.1-5.9-13.6-7.8c-4.4-1.8-6-5.3-6-8.9c0-5.6,4.5-9.7,14-9.7  c4.9,0,9.3,0.9,11,1.3c0.5,0.1,0.9,0.5,0.9,1v3.8c0,0.5-0.3,0.9-0.9,0.9c-0.1,0-0.1,0-0.1,0c-3.4-0.3-6.9-0.9-11.3-0.9  c-3.8,0-6.6,1.3-6.6,3.6c0,1.7,1.9,3.2,4.2,4.1c2.3,0.9,5.2,2,8.6,3.4c4.3,1.7,7.1,4.3,7.1,9.1C360.4,64,357.2,69.5,347,69.5z   M271.7,59c0,4.3,0.2,4.4,4,4.4h12.9c0.5,0,1,0.5,1,1v3.3c0,0.7-0.3,1-1,1.1c-1.6,0.3-4.9,0.7-11,0.7c-8.5,0-12.9,0.1-12.9-10.4  V42.9c0-10.5,4.5-10.4,12.9-10.4c6.1,0,9.4,0.5,11,0.7c0.8,0.1,1,0.4,1,1.1v3.3c0,0.6-0.5,1-1,1h-12.9c-3.9,0-4,0.1-4,4.4v4.7H288  c0.6,0,1,0.5,1,1v3.7c0,0.6-0.4,1-1,1h-16.3V59z M373.4,32.5c-4.5,0-7.5,3.3-7.5,7.4c0,4,3,7.4,7.5,7.4c4.5,0,7.5-3.4,7.5-7.4  C380.9,35.8,377.9,32.5,373.4,32.5z M373.4,46.3c-3.9,0-6.4-2.9-6.4-6.5c0-3.6,2.5-6.4,6.4-6.4c3.9,0,6.4,2.9,6.4,6.4  C379.8,43.4,377.3,46.3,373.4,46.3z M376.8,43.2l-1.6-2.8c0.8-0.3,1.4-0.9,1.4-2v-0.1c0-1.8-1.5-2.3-3.1-2.3c-0.8,0-1.9,0.1-2.4,0.1  c-0.2,0-0.3,0.1-0.3,0.3v6.8c0,0.1,0.1,0.2,0.2,0.2h1c0.1,0,0.2-0.1,0.2-0.2v-2.5c0.2,0,1.1,0,1.3,0h0.2l1.5,2.5  c0,0.1,0.1,0.2,0.2,0.2h1.3C376.8,43.4,376.8,43.3,376.8,43.2C376.8,43.2,376.8,43.2,376.8,43.2z M375.1,38.4c0,0.9-0.6,1.1-1.6,1.1  c-0.2,0-1.2,0-1.3,0v-2.2c0.2,0,1.1,0,1.3,0C374.5,37.2,375.1,37.5,375.1,38.4L375.1,38.4z"/>
<rect id="XMLID_2_" x="406.4" y="0.7" class="st2" width="1.5" height="94.9"/>
</svg>