<?xml version="1.0" encoding="utf-8"?>
<!-- Generator: Adobe Illustrator 26.0.3, SVG Export Plug-In . SVG Version: 6.00 Build 0)  -->
<svg version="1.1" id="Layer_1" xmlns="http://www.w3.org/2000/svg" xmlns:xlink="http://www.w3.org/1999/xlink" x="0px" y="0px"
	 viewBox="0 0 119 50" width="119px" height="50px" style="enable-background:new 0 0 119 50;" xml:space="preserve">
<style type="text/css">
	.st0{fill:#FFFFFF;}
</style>
<g>
	<path class="st0" d="M9,34.3c-2.5-0.7-4.4-1.7-5.7-3.1c-1.4-1.4-2.1-3.5-2.1-6.2c0-3.3,1.2-5.9,3.6-7.8c2.4-1.9,5.6-2.8,9.7-2.8
		c1.7,0,3.4,0.2,5.1,0.5c1.7,0.3,3.3,0.8,5.1,1.4c-0.1,1.1-0.3,2.3-0.7,3.5s-0.8,2.3-1.2,3.2c-1.1-0.4-2.2-0.8-3.5-1.1
		c-1.3-0.3-2.6-0.5-4-0.5c-1.5,0-2.6,0.2-3.5,0.7c-0.8,0.5-1.2,1.2-1.2,2.2c0,1,0.3,1.6,0.9,2c0.6,0.4,1.4,0.8,2.5,1.1l3.7,1.1
		c1.2,0.4,2.3,0.8,3.3,1.3c1,0.5,1.8,1.1,2.5,1.9c0.7,0.7,1.2,1.7,1.6,2.8c0.4,1.1,0.6,2.4,0.6,4c0,1.6-0.3,3.1-1,4.5
		s-1.7,2.6-3,3.6c-1.3,1-2.9,1.8-4.7,2.4c-1.8,0.6-3.9,0.9-6.2,0.9c-1.1,0-2,0-2.9-0.1s-1.7-0.2-2.5-0.3c-0.8-0.2-1.6-0.3-2.4-0.6
		c-0.8-0.2-1.6-0.5-2.6-0.8c0.1-1.2,0.3-2.4,0.6-3.6c0.3-1.2,0.8-2.4,1.3-3.5c1.4,0.6,2.8,1,4.1,1.3s2.6,0.4,4,0.4
		c0.6,0,1.3-0.1,2-0.2c0.7-0.1,1.4-0.3,2-0.6s1.1-0.7,1.5-1.1c0.4-0.5,0.6-1.1,0.6-1.8c0-1.1-0.3-1.8-1-2.3
		c-0.6-0.5-1.5-0.9-2.7-1.2L9,34.3z"/>
	<path class="st0" d="M53,1c0.8-0.1,1.6-0.2,2.3-0.3c0.8,0,1.5-0.1,2.3-0.1s1.5,0,2.3,0.1c0.8,0,1.6,0.1,2.4,0.3v46.9
		c-2.1,0.6-4.1,1.1-6.3,1.4c-2.1,0.3-4.7,0.5-7.7,0.5c-2.3,0-4.5-0.3-6.7-1c-2.1-0.6-4-1.6-5.6-3c-1.6-1.4-2.9-3.2-3.8-5.3
		c-0.9-2.2-1.4-4.9-1.4-8c0-2.5,0.4-4.8,1.2-7.1s2-4.1,3.5-5.7c1.5-1.6,3.3-2.9,5.5-3.8s4.5-1.4,7.2-1.4c0.8,0,1.6,0,2.5,0.1
		c0.9,0.1,1.7,0.2,2.5,0.4L53,1L53,1z M53,22.1c-0.9-0.2-1.6-0.4-2.1-0.4c-0.5-0.1-1.2-0.1-2.1-0.1c-1.4,0-2.7,0.3-3.8,0.9
		c-1.1,0.6-2,1.4-2.7,2.4c-0.7,1-1.2,2.1-1.5,3.5c-0.3,1.3-0.5,2.7-0.5,4.2c0,1.8,0.2,3.3,0.7,4.6c0.4,1.2,1,2.2,1.8,3
		c0.8,0.7,1.7,1.3,2.7,1.6c1.1,0.3,2.2,0.5,3.4,0.5c0.7,0,1.4,0,2-0.1c0.6-0.1,1.3-0.2,2-0.4L53,22.1L53,22.1z"/>
	<path class="st0" d="M67,15.2c1.1-0.2,2-0.4,2.9-0.4c0.9,0,1.7-0.1,2.3-0.1c0.9,0,1.8,0,2.6,0.1c0.9,0,1.7,0.2,2.4,0.3l7.4,25.3
		L92,15.1c0.7-0.1,1.5-0.2,2.4-0.3c0.8-0.1,1.7-0.1,2.5-0.1c0.7,0,1.4,0,2.3,0.1c0.9,0,1.8,0.2,2.9,0.4L89.2,49
		c-0.8,0.1-1.7,0.2-2.6,0.3c-0.9,0-1.7,0.1-2.3,0.1c-0.7,0-1.4,0-2.2-0.1c-0.8,0-1.6-0.2-2.4-0.3L67,15.2z"/>
	<path class="st0" d="M113.4,14.7c-1.5,0-3,0.1-4.6,0.4v7.1V49c1.6,0.3,3.1,0.4,4.5,0.4c1.5,0,3-0.1,4.6-0.4v-7.1V15.1
		C116.3,14.8,114.8,14.7,113.4,14.7"/>
	<path class="st0" d="M108.6,9.4c-0.3-1.5-0.4-3-0.4-4.4c0-1.4,0.1-2.9,0.4-4.4c0.7-0.1,1.5-0.2,2.4-0.3c0.9-0.1,1.6-0.1,2.3-0.1
		c0.7,0,1.5,0,2.4,0.1c0.9,0.1,1.7,0.2,2.4,0.3c0.1,0.7,0.2,1.5,0.3,2.2c0,0.7,0.1,1.5,0.1,2.2c0,0.7,0,1.4-0.1,2.2
		c0,0.7-0.1,1.5-0.3,2.2c-0.7,0.1-1.5,0.2-2.4,0.3c-0.9,0-1.7,0.1-2.4,0.1c-0.7,0-1.5,0-2.4-0.1C110.1,9.6,109.3,9.5,108.6,9.4"/>
</g>
</svg>
