<?xml version="1.0" encoding="UTF-8"?>
<svg id="layer" xmlns="http://www.w3.org/2000/svg" version="1.1" viewBox="0 0 652 318.1">
  <defs>
    <style>
      .cls-1 {
        fill: #1f90cf;
      }

      .cls-1, .cls-2 {
        stroke-width: 0px;
      }

      .cls-2 {
        fill: #bfd134;
      }
    </style>
  </defs>
  <path class="cls-2" d="M536.8,194c.3-.5.2-1.1-.2-1.7-.7-1-2.4-1.9-3.7-2-.8,0-1.5.2-1.8.7s-.2,1.1.2,1.8c.7,1,2.4,1.9,3.7,2,1.1,0,1.6-.5,1.8-.8"/>
  <path class="cls-2" d="M527,187.7c-.7-1-.5-1.8-.3-2.1.2-.4.8-.9,2.2-.8,1.7.1,3.8,1.2,4.8,2.6.7,1,.5,1.8.2,2.1-.2.4-.8,1-2.2.9-1.6-.3-3.7-1.4-4.7-2.7h0ZM535,197.2c.5.8,1.7,1.4,2.7,1.4s1.2-.2,1.4-.6.2-.9,0-1.4c-.5-.7-1.7-1.4-2.7-1.4s-1.2.2-1.4.6c-.3.4-.2.9,0,1.4M556.8,194.7c-.7.1-1.2.4-1.5.9,0,.3-.3,1,.5,1.9.9,1,2.7,1.8,3.9,1.7.7-.1,1.3-.4,1.5-.9.2-.6,0-1.3-.6-1.9-.8-1.1-2.5-1.8-3.8-1.7M552.2,188.5c.3-.9-.2-1.9-1.3-2.9-1.7-1.6-4.4-2.6-6.2-2.2-.8.2-1.4.6-1.6,1.3-.3.9.2,2,1.3,3,1.6,1.5,4,2.4,5.8,2.2-.3.2-.5.5-.6.7s0,.4,0,.5c0,.6.3,1.2.9,1.9,1.3,1.3,3.5,2.2,5,2,1.1-.1,1.5-.7,1.7-1,.3-.7,0-1.6-.8-2.4-1.2-1.3-3.4-2.1-4.9-2,.4-.4.7-.7.8-1.1M574.6,191.5c1.4-.3,3.7.4,5.1,1.7,1,.8,1.4,1.8,1.1,2.5-.2.6-.6,1-1.3,1.1-1.4.3-3.6-.4-5.1-1.7h0c-.9-.9-1.4-1.8-1.2-2.6.2-.4.7-.8,1.4-1M588.1,187.1v.2c0,1,.7,2.1,2,3,2.1,1.5,4.7,2.1,6.2,1.4.6-.3,1-.8,1.1-1.4,0-1-.6-2.2-2-3.2-1.8-1.3-4.6-2.2-6.2-1.4s-1,.8-1.1,1.4M600.2,177.5c-.5.4-.7,1-.6,1.6,0,1.2,1.3,2.7,3.1,3.8,2.7,1.7,5.8,2,7.1.8.5-.4.7-1,.6-1.6,0-1.2-1.3-2.7-3.1-3.8-2.7-1.7-5.8-2-7.1-.8M611.7,173.3c2.2,1.1,4.5,1.5,6.1,1.1l1.6-1.2c1-1.8-.8-4.4-4.2-6.1s-4.5-1.5-6.1-1.1l-1.6,1.2c-.2.3-.2.7-.2,1,0,1.6,1.6,3.7,4.4,5.1M624.7,160.4c.4-2.1-2.3-5-6.1-6.6-2.5-1-5-1.2-6.4-.5s-1.2,1-1.4,1.7c-.4,2.2,2.3,5.1,6.1,6.6h0c2.6,1,5,1.2,6.5.5.7-.4,1.2-1,1.3-1.7M611.2,138.9c-.7.5-1,1.2-1,2.1v.4c.3,2.6,3.9,5.6,8.1,6.9,2.7.9,5.1.8,6.4-.2.8-.6,1.1-1.5,1-2.4-.3-2.6-3.8-5.6-8-6.9-2.7-.9-5.1-.9-6.5.1M572.9,191.7c.7-.3,1.2-.8,1.3-1.4.2-1-.5-2.1-1.7-3.1-1.9-1.6-4.6-2.3-6.2-1.7-.7.3-1.1.7-1.3,1.4v.3c0,.9.6,1.9,1.7,2.8,1.9,1.5,4.6,2.3,6.2,1.7M576.7,180.4c0,1.2,1.2,2.6,3,3.7,2.6,1.7,5.7,2.1,7.1,1,.5-.4.8-1,.7-1.6,0-1.2-1.2-2.6-2.9-3.7-2.7-1.7-5.7-2.1-7.2-1-.5.4-.7.9-.7,1.5h0q0,.1,0,.1ZM591.9,169.4c-2.2-1.1-4.5-1.5-6.1-1l-1.6,1.2c-.2.3-.2.6-.2,1,0,1.7,1.8,3.7,4.5,5.1,2.2,1.1,4.5,1.5,6.1,1.1l1.6-1.2c.9-1.9-1-4.5-4.3-6.2M594.1,156.6c-2.6-1-4.9-1.1-6.3-.2-.7.4-1.2,1.1-1.2,1.9,0,2.2,2.7,5.1,6.5,6.5,2.6,1,4.9,1,6.3.2.7-.4,1.2-1.1,1.2-1.9,0-2.2-2.8-5-6.5-6.5M591,142c-2.6-.7-4.8-.5-6,.6-.7.7-1,1.7-.7,2.8.7,2.6,4.5,5.6,8.7,6.6,2.6.7,4.8.5,5.9-.6.8-.7,1-1.7.7-2.8-.7-2.6-4.5-5.5-8.6-6.6M555,179.8c0,1.2,1.1,2.6,2.8,3.8,2.6,1.7,5.7,2.2,7.2,1.2.5-.4.8-.9.8-1.6,0-1.2-1-2.6-2.8-3.8-2.6-1.7-5.7-2.2-7.2-1.2-.5.4-.8,1-.8,1.6h0ZM572.2,176.8l1.5-1.3c.7-1.8-1.3-4.4-4.7-6-2.2-1-4.5-1.4-6-.9l-1.5,1.3c-.7,1.9,1.3,4.5,4.7,6.1,2.3,1,4.6,1.4,6,.8M568.3,156.7c-2.4-.7-4.5-.6-5.7.3-.7.6-1,1.4-.8,2.3.4,2.3,3.6,5,7.4,6.2,2.4.7,4.5.6,5.7-.3.7-.6,1-1.4.9-2.3-.5-2.4-3.8-5.1-7.5-6.2M560.8,142.1c-2.2-.3-3.9.2-4.7,1.3-.7.9-.6,2.2.2,3.5,1.6,2.7,6,5.3,9.8,5.8h0c2.2.3,3.8-.2,4.6-1.3.7-.9.7-2.2-.2-3.6-1.6-2.7-5.8-5.2-9.7-5.7M606.2,123.3c-.8.8-1,2-.5,3.3,1.1,2.9,5.6,6.1,10,7.1,2.7.6,5,.3,6.1-.9.8-.8,1-2,.5-3.3-1.1-3-5.5-6.1-10-7.1-2.7-.6-4.9-.3-6.1.9M598.7,107.6c-.7.9-.6,2.2.2,3.6,1.7,2.8,6,5.3,9.8,5.8,2.2.2,3.8-.2,4.6-1.3.7-.9.6-2.2-.2-3.6-1.6-2.7-6-5.3-9.8-5.8-2.2-.3-3.8.2-4.6,1.3M597.5,99.6c1.6,0,2.8-.5,3.3-1.5.6-1,.2-2.4-.9-3.8-2-2.5-6.1-4.5-9.3-4.5s-2.8.6-3.3,1.5c-.6,1.1-.3,2.4.9,3.8,2.1,2.5,6.2,4.5,9.3,4.5M582.6,82.1c1.2-.2,2-.7,2.3-1.6,0-.2,0-.5,0-.7,0-1-.6-2-1.6-3.1-2.2-2.2-5.9-3.6-8.4-3.2-1.2.2-1.9.7-2.3,1.6-.4,1.1,0,2.5,1.5,3.8,2.2,2.2,5.9,3.6,8.4,3.2M564.2,65.1h0c.8-.3,1.3-.8,1.4-1.5.2-1.1-.5-2.4-2-3.6-2.2-1.8-5.5-2.7-7.3-2-.8.3-1.3.8-1.4,1.5-.2,1.1.5,2.4,2,3.6,2.3,1.7,5.5,2.6,7.3,2M543.1,48.8h0ZM536.9,47.8c1.9,1.2,4.7,2.1,6.2,1,.5-.3.8-.8.8-1.4,0-1.1-.9-2.3-2.4-3.2-1.9-1.2-4.6-2-6.1-1-.5.3-.8.9-.8,1.4,0,1,.9,2.2,2.3,3.2M519.8,33.8h0c0,.1,0,0,0,0ZM514.8,33.7c2,1.1,4.1,1.2,4.9.2l.3-1.3c-.2-.9-1.1-1.9-2.4-2.6-1.7-1-4-1.3-4.9-.2l-.3,1.3c.2.9,1.1,1.9,2.4,2.6M442.2,91.5c-1.7-1-4-1.4-5-.2l-.3,1.3c.2.9,1.1,1.9,2.4,2.6,2,1.1,4.1,1.2,5,.2l.3-1.3c-.2-.9-1.1-1.9-2.4-2.6M444.4,95.3h-.1c0,.1.1,0,.1,0ZM491,21.3c1.1.5,2.2.6,2.9.3.4-.2.7-.5.8-.8,0-.1.1-.3.1-.4,0-1-1.1-2-2.3-2.6-1.1-.5-2.2-.6-2.9-.3l-.8.8c-.4,1,.8,2.3,2.2,3M466.9,7.7c-.8-.3-1.6-.3-2,0-.3.2-.5.5-.5.9,0,.9,1,1.7,2,2.1.8.3,1.6.3,2,0,.4-.2.5-.6.5-.9h0c-.1-.9-1.1-1.8-2-2.1M441.4,2.3c.5.1,1,.1,1.3-.2l.3-.3v-.6c-.2-.6-.8-1-1.4-1.2-.5-.1-1,0-1.3.2l-.3.3v.6c.1.7.8,1.1,1.4,1.2M431.2,98.1c-1.1-.5-2.2-.6-2.9-.3l-.8.8c-.4,1.1.9,2.4,2.3,3,1,.5,2.1.6,2.9.3l1-.9h-.1c.2-1-1-2.2-2.4-2.9M425.5,107.6c-.8-.3-1.6-.3-2.1,0-.3.2-.5.5-.5.9,0,.9,1,1.7,2.1,2.1.8.3,1.5.3,2,0,.3-.2.5-.6.5-.9h0c0-.9-1-1.7-2-2.1M425.8,119c-.5-.1-1-.1-1.3.2l-.3.3v.6c.2.6.8,1,1.4,1.2.5.1,1,.1,1.3-.2l.3-.3v-.6c0-.7-.8-1.1-1.4-1.2M582.9,126.2c-2.4-.3-4.3.2-5.2,1.4-.4.5-.5,1-.5,1.6s.2,1.4.6,2.2c1.7,3.1,6.4,5.9,10.7,6.5,2.4.3,4.3-.1,5.2-1.3.8-1,.7-2.4,0-3.8-1.7-3.2-6.4-6-10.7-6.6M578.8,121.8c1.7,0,3-.6,3.6-1.7.2-.4.3-.7.3-1.2,0-1-.5-2-1.4-3.1-2.3-2.8-6.9-4.9-10.3-4.9s-3.1.6-3.6,1.7c-.6,1.2-.2,2.7,1.1,4.2,2.3,3,6.8,5.1,10.3,5M564.7,105.7h0c1.2-.3,1.9-.9,2.2-1.8.4-1.3-.4-2.9-2-4.4-2.7-2.4-6.8-3.9-9.5-3.3-1.2.2-1.9.9-2.2,1.8-.4,1.3.4,2.9,2,4.4,2.6,2.4,6.8,3.9,9.5,3.3M536.7,82.2c-.7.4-1.1,1-1.2,1.8,0,1.3.9,2.9,2.8,4.2,2.8,2,6.5,2.8,8.4,1.8.7-.4,1.1-1,1.2-1.8,0-1.3-1-2.9-2.8-4.2-2.9-2-6.6-2.7-8.4-1.8M522.8,70.3c-2.8-1.6-5.8-1.8-7-.5l-.4,1.7c.2,1.3,1.5,2.7,3.4,3.7,2.8,1.6,5.8,1.8,7,.5h0c0-.1,0,0,0,0l.4-1.6c-.3-1.3-1.6-2.8-3.4-3.8M499.1,58.8c-1.7-.8-3.3-.9-4.4-.5-.6.3-.9.6-1.1,1.2-.4,1.4,1.2,3.4,3.7,4.5,1.7.7,3.3.9,4.4.4.5-.2.9-.7,1.1-1.2h0c.4-1.4-1.2-3.3-3.7-4.4M474.9,54.9c1.4.4,2.6.4,3.3-.1.5-.3.7-.8.6-1.4-.1-1.3-1.8-2.7-3.8-3.4-1.4-.5-2.6-.4-3.3.1-.5.3-.7.8-.6,1.4.1,1.4,2,2.8,3.8,3.4M452.4,48.5c1,.2,1.8,0,2.2-.5.4-.4.5-.9.2-1.5h0c-.5-1-1.9-2.1-3.4-2.4-1-.2-1.8,0-2.3.5s-.4.9-.2,1.5c.5,1.1,2,2.1,3.5,2.4M430.9,45.1c.6.1,1.2-.2,1.4-.6.1-.2.2-.3.2-.5,0-.3-.1-.6-.3-.9-.5-.8-1.7-1.4-2.7-1.4s-1.2.2-1.4.6c-.2.4-.2.9.2,1.4.4.7,1.6,1.4,2.6,1.4M412,43.2c-.4-.4-1.1-.8-1.7-.7h-.4c0,.1-.4.6-.4.6-.1.3,0,.8.3,1.1.4.5,1.2.7,1.7.7h.4l.4-.5c.1-.4,0-.9-.3-1.2M544,129.3c-.6,1.4,0,3.2,1.8,5,2.9,3,8,5.1,11.6,4.7,1.7-.2,2.8-.9,3.2-2,0-.3.2-.7.2-1,0-1.2-.7-2.6-2-3.9-3-3.1-8.1-5.2-11.7-4.8-1.5,0-2.6.8-3.1,2M532.2,121.8c3.5,2.6,8.1,3.6,10.5,2.4.9-.4,1.4-1.2,1.5-2.1,0-1.6-1.2-3.6-3.4-5.3-3.5-2.6-8.2-3.6-10.5-2.4-.9.5-1.4,1.2-1.5,2.1-.2,1.6,1.1,3.6,3.4,5.3M515,110.6c3.7,1.9,7.5,2,8.7.1.4-.6.5-1.3.2-2.1-.5-1.7-2.3-3.5-4.8-4.8-3.7-2-7.6-2-8.7-.1-.4.6-.4,1.3-.2,2.1.5,1.7,2.3,3.5,4.8,4.8M489.7,96.1c0,2,2.7,4.5,6,5.7,2.2.8,4.2.8,5.4,0,.6-.4,1-1.1,1-1.8h0c0-2-2.7-4.5-6-5.7-2.2-.8-4.2-.8-5.4,0-.7.3-1,1-1,1.8M479.9,92.8c-.9-1.9-3.7-3.7-6.4-4.2-1.7-.3-3,0-3.7.8-.3.4-.8,1.1-.2,2.4.9,1.9,3.7,3.8,6.5,4.2,1.6.3,2.9,0,3.6-.8.4-.3.8-1.1.2-2.4M459.4,90.2c-1.4-1.6-4-2.8-6-2.8s-2,.7-2.2,1.1c-.4.8-.1,1.7.7,2.7,1.4,1.6,4,2.9,6,2.8,1.4,0,2-.7,2.2-1.1.3-.8.1-1.7-.7-2.7h0Z"/>
  <path class="cls-1" d="M511.6,216c4.2,0,7.7,3.4,7.7,7.6s-3.4,7.7-7.7,7.7-7.7-3.4-7.7-7.7c.1-4.2,3.5-7.6,7.7-7.6M511.6,229.9c3.5,0,6.3-2.8,6.3-6.3s-2.8-6.3-6.3-6.3-6.3,2.8-6.3,6.3c0,3.5,2.9,6.3,6.3,6.3M508.7,219.2h3.4c2.1,0,3.1.9,3.1,2.6s-.9,2.3-2.1,2.4l2.3,3.7h-1.7l-2.2-3.6h-1.2v3.6h-1.6v-8.7h0ZM510.3,223h1.2c1,0,2.1-.1,2.1-1.2s-1.1-1.2-2.1-1.2h-1.2v2.4h0Z"/>
  <path class="cls-1" d="M90,140h15.5v90.6h-15.5v-90.6ZM272.3,230.6v-90.6h-15v56.7l-62.7-57v90.9h15.7v-55.8l62,55.8ZM282.2,230.6h15.5v-90.6h-15.5v90.6ZM351.2,230.6h15.7v-59.9c0-8.5-3-15.7-9-21.7s-13.2-9-21.7-9-15.8,3-21.8,8.9-8.9,13.2-8.9,21.7v59.9h15.5v-36h30.2v36.1ZM321,170.6c0-4.2,1.5-7.8,4.4-10.8,3-3,6.5-4.5,10.7-4.5s7.7,1.5,10.7,4.5c2.9,3,4.4,6.6,4.4,10.8v10.8h-30.2v-10.8ZM452.2,140h-15v56.7l-62.7-57v90.9h15.7v-55.8l61.9,55.8v-77.3h24.6v77.3h15.7v-77.3h23.1v-13.3h-63.3ZM171.5,214.2c-3.8,1.7-7.8,2.5-12,2.5-8.5,0-15.7-3-21.7-9s-9-13.2-9-21.7.7-7.9,2-11.4c1.5-3.8,3.8-7.3,7-10.5,6-6,13.2-8.9,21.7-8.9s3.7.2,5.5.5c2.2.5,5,1.3,8.3,2.8.5.2,1,.5,1.4.8h0c1.6.7,3.4,1.7,5.3,2.9v-17.5c-6.3-3.2-13-4.8-20.3-4.8h-.2c-.9,0-1.8,0-2.6.1-11.7.6-21.7,5-30.1,13.3-9,8.9-13.5,19.8-13.5,32.6h0c0,12.9,4.5,23.8,13.5,32.7,9,8.9,19.9,13.4,32.7,13.4s19.3-3.1,27.5-9.2v-35.6h-15.5v27ZM77.2,188.2c-3-4.1-8-7.2-14.8-9.3-3.9-1.2-6.6-2.1-8.1-2.5-7.6-2.3-11.5-6-11.5-11.2s1.6-6.7,4.9-8.7c2.1-1.3,4.5-1.9,7-1.9,0,0,7.8-.7,18.3,5.2v-15.2c-12.2-5.6-20.1-4.5-20.1-4.5-4.9.2-9.4,1.4-13.5,3.6s-7.4,5.4-10,9.4c-2.5,4-3.8,8.3-3.8,12.9v.7c0,5.3,1.1,9.8,3.4,13.4s5.8,6.7,10.7,9.5c3.5,1.3,6.4,2.2,8.7,2.9,5,1.4,8.6,2.8,10.7,4,4,2.3,6,5.2,6,8.8v.2c0,7.8-5.5,11.7-16.4,11.7,0,0-8.7.8-20.9-9.8v18.2l5.1,2.4c6.9,3.1,13.3,4.5,19.1,4.2,12.7-.5,21.7-4.9,26.8-13.3,2.3-3.8,3.4-8.3,3.2-13.5-.2-7.4-1.8-13.1-4.8-17.2"/>
</svg>