<?xml version="1.0" encoding="utf-8"?>
<!-- Generator: Adobe Illustrator 26.0.3, SVG Export Plug-In . SVG Version: 6.00 Build 0)  -->
<svg version="1.0"
	 id="svg16" sodipodi:docname="IET Logo.svg" xmlns:cc="http://creativecommons.org/ns#" xmlns:dc="http://purl.org/dc/elements/1.1/" xmlns:inkscape="http://www.inkscape.org/namespaces/inkscape" xmlns:rdf="http://www.w3.org/1999/02/22-rdf-syntax-ns#" xmlns:sodipodi="http://sodipodi.sourceforge.net/DTD/sodipodi-0.dtd" xmlns:svg="http://www.w3.org/2000/svg"
	 xmlns="http://www.w3.org/2000/svg" xmlns:xlink="http://www.w3.org/1999/xlink" x="0px" y="0px" viewBox="0 0 532.7 405.9"
	 style="enable-background:new 0 0 532.7 405.9;" xml:space="preserve">
<style type="text/css">
	.st0{fill:#964F9F;}
	.st1{fill:#53264D;}
</style>
<g id="g14" transform="matrix(0.1,0,0,-0.1,-11.732954,298.06817)">
	<path id="path4" inkscape:connector-curvature="0" d="M1007.3,950.8v-880h195h195v880v880h-195h-195V950.8z"/>
	<path id="path6" inkscape:connector-curvature="0" d="M1707.3,1633.8v-198l657,1l658,2l-1,33c-1,19-2,107-3,197l-1,162h-655h-655
		V1633.8z"/>
	<path id="path8" inkscape:connector-curvature="0" d="M3237.3,1633.8v-198h227h228l3-682l2-683h200h200l2,683l3,682h228h227v198
		v197h-660h-660V1633.8z"/>
	<path id="path10" inkscape:connector-curvature="0" d="M1711.3,1137.8c-2-7-3-96-2-197l3-185l653-3l652-2v200v200h-650
		C1847.3,1150.8,1715.3,1147.8,1711.3,1137.8z"/>
	<path id="path12" inkscape:connector-curvature="0" d="M1707.3,265.8v-195h655h655v195v195h-655h-655V265.8z"/>
</g>
<rect id="rect4642" x="159.2" y="182.9" class="st0" width="130.8" height="40.1"/>
<rect id="rect4644" x="158.9" y="252" class="st0" width="131.2" height="39"/>
<rect id="rect4646" x="158.9" y="115" class="st1" width="131.6" height="39.6"/>
<rect id="rect4648" x="88.7" y="114.9" class="st1" width="39.3" height="176.1"/>
<rect id="rect4650" x="312" y="114.9" class="st1" width="132" height="39.6"/>
<rect id="rect4652" x="357.5" y="152.3" class="st1" width="40.9" height="138.7"/>
</svg>
